<?xml version="1.0" standalone="no"?>
<!DOCTYPE svg PUBLIC "-//W3C//DTD SVG 1.1//EN" "http://www.w3.org/Graphics/SVG/1.1/DTD/svg11.dtd" >
<svg>
<metadata>
Created by FontForge 20090622 at Sat May 27 23:34:53 2017
 By deploy user
Copyright Hans Reichel, 1996. Published by FontShop International FontFont release 17
</metadata>
<defs>
<font id="Dax-ExtraBold" horiz-adv-x="582" >
  <font-face 
    font-family="Dax-ExtraBold"
    font-weight="5"
    font-stretch="normal"
    units-per-em="1000"
    panose-1="0 0 0 0 0 0 0 0 0 0"
    ascent="800"
    descent="-200"
    x-height="539"
    cap-height="688"
    bbox="-103 -234 1218 916"
    underline-thickness="50"
    underline-position="-75"
    unicode-range="U+0020-U+F002"
  />
<missing-glyph horiz-adv-x="785" 
d="M49 0v785h687v-785h-687zM687 49v687h-589v-687h589z" />
    <glyph glyph-name=".notdef" horiz-adv-x="785" 
d="M49 0v785h687v-785h-687zM687 49v687h-589v-687h589z" />
    <glyph glyph-name=".null" horiz-adv-x="0" 
 />
    <glyph glyph-name="nonmarkingreturn" horiz-adv-x="264" 
 />
    <glyph glyph-name="space" unicode=" " horiz-adv-x="264" 
 />
    <glyph glyph-name="exclam" unicode="!" horiz-adv-x="352" 
d="M257 257h-145l-41 431h227zM185 -10q-44 0 -74.5 30.5t-30.5 74.5q0 43 30.5 73.5t74.5 30.5q43 0 73.5 -30.5t30.5 -73.5q0 -44 -30.5 -74.5t-73.5 -30.5z" />
    <glyph glyph-name="quotedbl" unicode="&#x22;" horiz-adv-x="471" 
d="M389 367h-97l-31 295q30 37 80 37q49 0 79 -37zM178 367h-96l-31 295q28 37 79 37t79 -37z" />
    <glyph glyph-name="numbersign" unicode="#" 
d="M448 408l-19 -110h78v-90h-93l-35 -208h-103l35 208h-89l-36 -208h-104l36 207h-78v91h93l19 109h-78v91h93l33 190h103l-32 -190h89l32 190h104l-32 -190h78v-90h-94zM256 408l-20 -110h89l20 110h-89z" />
    <glyph glyph-name="dollar" unicode="$" 
d="M313 0l12 -134h-104l12 129q-56 0 -93 9.5t-68 28.5l43 130q22 -13 49 -21t58 -8q33 0 53 17t20 49q0 29 -19.5 48.5t-72 44.5t-89 70.5t-36.5 113.5q0 80 48 139t132 74l-12 124h102l-12 -122q42 0 72 -9.5t59 -26.5l-36 -109q-21 11 -45 18.5t-52 7.5q-31 0 -52 -17
t-21 -46q0 -30 20 -50t79.5 -51.5t95.5 -77.5t36 -119q0 -80 -48.5 -137.5t-130.5 -74.5z" />
    <glyph glyph-name="percent" unicode="%" horiz-adv-x="905" 
d="M693 -10q-89 0 -125 70.5t-36 167.5q0 98 35.5 168.5t125.5 70.5q89 0 125 -70.5t36 -168.5q0 -97 -36 -167.5t-125 -70.5zM380 -11l-91 22l236 688l90 -23zM212 222q-89 0 -125 69.5t-36 167.5q0 97 36 168t125 71t125 -70.5t36 -168.5q0 -96 -36 -166.5t-125 -70.5z
M693 386q-25 0 -33.5 -39.5t-8.5 -113.5q0 -78 8 -115.5t34 -37.5q24 0 33 39t9 114q0 78 -8 115.5t-34 37.5zM212 618q-25 0 -33.5 -39.5t-8.5 -114.5q0 -78 8 -115.5t34 -37.5q25 0 33.5 39.5t8.5 113.5q0 78 -8.5 116t-33.5 38z" />
    <glyph glyph-name="ampersand" unicode="&#x26;" horiz-adv-x="663" 
d="M564 369v-337q-35 -19 -94.5 -30.5t-143.5 -11.5q-138 0 -214 51.5t-76 152.5q0 73 40 117.5t99 67.5q-97 51 -97 145q0 78 61 126t163 48q60 0 107.5 -11.5t77.5 -30.5l-55 -109q-22 10 -40.5 15t-46.5 5q-77 0 -77 -64q0 -29 24 -46t63 -17q52 0 119 20.5t140 56.5
l56 -111q-46 -22 -106 -37zM378 337q-73 -15 -106.5 -45t-33.5 -85q0 -51 23 -75t76 -24q13 0 22.5 1.5t18.5 5.5v222z" />
    <glyph glyph-name="quotesingle" unicode="'" horiz-adv-x="262" 
d="M179 367h-96l-32 295q28 37 80 37t80 -37z" />
    <glyph glyph-name="parenleft" unicode="(" horiz-adv-x="416" 
d="M312 -229q-142 138 -203.5 259t-61.5 256q0 133 62 255t203 259l88 -48q-74 -104 -115 -219t-41 -247q0 -131 41 -247t115 -220z" />
    <glyph glyph-name="parenright" unicode=")" horiz-adv-x="416" 
d="M104 -229l-88 48q74 103 115.5 219.5t41.5 247.5q0 132 -41 246.5t-116 219.5l88 48q142 -138 203.5 -259t61.5 -255t-62 -256t-203 -259z" />
    <glyph glyph-name="asterisk" unicode="*" horiz-adv-x="481" 
d="M376 591q-24 0 -42.5 18.5t-18.5 44.5q0 27 18 45t44 18q25 0 43 -18t18 -45t-18 -45t-44 -18zM240 691q-24 0 -42.5 18.5t-18.5 43.5q0 27 18 45t44 18q24 0 42.5 -18.5t18.5 -44.5t-18 -44t-44 -18zM240 561q-18 0 -33 14t-15 35q0 22 14 36t35 14q20 0 34.5 -14.5
t14.5 -35.5t-15 -35t-35 -14zM325 432q-24 0 -42.5 18.5t-18.5 43.5q0 27 18 45t44 18q25 0 43 -18t18 -45t-18.5 -44.5t-43.5 -17.5zM104 592q-24 0 -42.5 18.5t-18.5 43.5q0 27 18 45t44 18q24 0 42.5 -18.5t18.5 -44.5t-18 -44t-44 -18zM155 432q-24 0 -43 18t-19 45
t18 45t44 18q25 0 43 -18t18 -45t-18 -45t-43 -18z" />
    <glyph glyph-name="plus" unicode="+" 
d="M351 270v-149h-120v149h-148v120h148v149h120v-149h148v-120h-148z" />
    <glyph glyph-name="comma" unicode="," horiz-adv-x="323" 
d="M106 -169h-111l97 309q17 26 44 41t64 15t56 -15t24 -41z" />
    <glyph glyph-name="hyphen" unicode="-" horiz-adv-x="362" 
d="M42 267v137h278v-137h-278z" />
    <glyph glyph-name="period" unicode="." horiz-adv-x="296" 
d="M148 -10q-43 0 -73.5 30.5t-30.5 74.5q0 43 30.5 73.5t73.5 30.5q44 0 74.5 -30.5t30.5 -73.5q0 -44 -30.5 -74.5t-74.5 -30.5z" />
    <glyph glyph-name="slash" unicode="/" horiz-adv-x="591" 
d="M117 -234l-113 56l469 977l114 -56z" />
    <glyph glyph-name="zero" unicode="0" 
d="M291 -10q-133 0 -191 106t-58 248q0 143 57.5 248.5t191.5 105.5q133 0 191 -106.5t58 -247.5q0 -143 -57.5 -248.5t-191.5 -105.5zM291 579q-40 0 -54.5 -59t-14.5 -174q0 -113 14.5 -172t54.5 -59t54.5 58.5t14.5 172.5q0 113 -14.5 173t-54.5 60z" />
    <glyph glyph-name="one" unicode="1" 
d="M247 0v498q-22 -9 -66 -17.5t-89 -8.5l-24 114q93 10 154.5 40.5t78.5 61.5h139v-688h-193z" />
    <glyph glyph-name="two" unicode="2" 
d="M24 0l230 336q33 48 44.5 78t11.5 60q0 43 -23 65t-73 22q-45 0 -71 -6t-53 -20l-44 120q35 18 87 30.5t120 12.5q137 0 196 -60t59 -138q0 -81 -94 -198l-117 -145h213v-157h-486z" />
    <glyph glyph-name="three" unicode="3" 
d="M241 -10q-70 0 -123 10.5t-93 30.5l50 128q23 -12 56.5 -20t76.5 -8q51 0 79 21.5t28 61.5q0 49 -42.5 70.5t-111.5 21.5l-1 99q72 7 107.5 32t35.5 65q0 62 -84 62q-39 0 -69.5 -6.5t-59.5 -19.5l-44 119q36 18 88.5 29.5t117.5 11.5q115 0 177.5 -46.5t62.5 -128.5
q0 -46 -28.5 -81t-70.5 -53q60 -25 93.5 -67t33.5 -109q0 -99 -77 -161t-202 -62z" />
    <glyph glyph-name="four" unicode="4" 
d="M493 126v-126h-180v126h-269v109l262 453h187v-462h50v-100h-50zM268 412l-107 -186h152v183q0 40 1 62.5t4 41.5q-4 -10 -14.5 -34t-35.5 -67z" />
    <glyph glyph-name="five" unicode="5" 
d="M249 -10q-74 0 -124 10t-92 31l50 129q23 -12 57.5 -21t76.5 -9q50 0 78 22t28 63q0 42 -34 69t-117 27q-43 0 -102 -9l43 386h380v-157h-247l-11 -113q153 0 223 -54t70 -151q0 -98 -76.5 -160.5t-202.5 -62.5z" />
    <glyph glyph-name="six" unicode="6" 
d="M294 -10q-129 0 -188.5 78t-59.5 192q0 137 64 232t152.5 145.5t157.5 58.5l47 -126q-60 -13 -118.5 -48.5t-92.5 -100.5q11 3 24 5t28 2q96 0 164.5 -49t68.5 -164q0 -103 -67 -164t-180 -61zM266 335q-11 0 -18 -1t-21 -6q-7 -31 -7 -75q0 -60 17 -100.5t59 -40.5
q36 0 51.5 32t15.5 83q0 108 -97 108z" />
    <glyph glyph-name="seven" unicode="7" 
d="M477 478q-58 -145 -101 -274.5t-57 -203.5h-230l242 532h-283v156h513z" />
    <glyph glyph-name="eight" unicode="8" 
d="M290 -10q-111 0 -179.5 49t-68.5 137q0 59 32 99.5t98 80.5q-56 37 -83.5 76t-27.5 89q0 79 64 128t165 49q102 0 166.5 -48.5t64.5 -127.5q0 -91 -112 -159q66 -42 98.5 -85t32.5 -100q0 -86 -68.5 -137t-181.5 -51zM295 594q-33 0 -53.5 -19.5t-20.5 -49.5
q0 -28 15 -48.5t60 -52.5q43 29 58.5 50.5t15.5 49.5q0 30 -21 50t-54 20zM287 292q-49 -29 -65.5 -53.5t-16.5 -57.5q0 -31 23.5 -53.5t59.5 -22.5q35 0 57 21t22 53q0 36 -14.5 58.5t-65.5 54.5z" />
    <glyph glyph-name="nine" unicode="9" 
d="M162 -10l-47 125q60 14 118.5 49.5t92.5 99.5q-23 -6 -52 -6q-96 0 -164.5 49t-68.5 164q0 103 69 164t182 61q129 0 186.5 -77.5t57.5 -192.5q0 -137 -64 -232t-152.5 -145.5t-157.5 -58.5zM283 581q-35 0 -51 -33t-16 -82q0 -108 98 -108q12 0 23 3t16 4q3 16 5 34
t2 40q0 60 -17 101t-60 41z" />
    <glyph glyph-name="colon" unicode=":" horiz-adv-x="296" 
d="M148 309q-43 0 -73.5 30.5t-30.5 73.5q0 44 30.5 74.5t73.5 30.5q44 0 74.5 -30.5t30.5 -74.5q0 -43 -30.5 -73.5t-74.5 -30.5zM148 -10q-43 0 -73.5 30.5t-30.5 74.5q0 43 30.5 73.5t73.5 30.5q44 0 74.5 -30.5t30.5 -73.5q0 -44 -30.5 -74.5t-74.5 -30.5z" />
    <glyph glyph-name="semicolon" unicode=";" horiz-adv-x="323" 
d="M175 309q-44 0 -74 30t-30 74q0 43 30 74t74 31t74.5 -30.5t30.5 -74.5q0 -43 -30.5 -73.5t-74.5 -30.5zM106 -169h-111l97 309q17 25 44.5 41t63.5 16t55.5 -16t24.5 -41z" />
    <glyph glyph-name="less" unicode="&#x3c;" 
d="M83 277v108l416 171v-130l-268 -95l268 -96v-130z" />
    <glyph glyph-name="equal" unicode="=" 
d="M83 382v120h416v-120h-416zM83 158v120h416v-120h-416z" />
    <glyph glyph-name="greater" unicode="&#x3e;" 
d="M83 105v130l268 96l-268 95v130l416 -171v-108z" />
    <glyph glyph-name="question" unicode="?" horiz-adv-x="478" 
d="M318 353l-11 -96h-144l-17 149q56 11 88.5 36t32.5 59q0 30 -21 49t-67 19q-30 0 -53 -7t-45 -18l-48 113q34 18 82 29.5t104 11.5q115 0 181.5 -48t66.5 -128q0 -66 -45.5 -108t-103.5 -61zM236 -10q-44 0 -74.5 30.5t-30.5 74.5q0 43 30.5 73.5t74.5 30.5
q43 0 73.5 -30.5t30.5 -73.5q0 -44 -30.5 -74.5t-73.5 -30.5z" />
    <glyph glyph-name="at" unicode="@" horiz-adv-x="867" 
d="M579 66q-39 0 -57.5 18.5t-26.5 59.5q-31 -37 -66 -56.5t-77 -19.5q-67 0 -101.5 47.5t-34.5 116.5q0 98 61 187t159 89q66 0 110 -66l11 48h84l-47 -210q-5 -21 -10 -46.5t-5 -47.5q0 -18 3 -32.5t21 -14.5q59 0 99.5 92t40.5 181q0 106 -66.5 167.5t-171.5 61.5
q-165 0 -275.5 -125t-110.5 -287q0 -136 88 -214t225 -78q114 0 192.5 39t147.5 108l41 -51q-80 -78 -168 -117.5t-215 -39.5q-173 0 -280.5 94.5t-107.5 259.5q0 191 137.5 330.5t334.5 139.5q137 0 221.5 -77.5t84.5 -207.5q0 -122 -66 -235.5t-175 -113.5zM440 436
q-60 0 -96 -70t-36 -134q0 -44 21.5 -67.5t51.5 -23.5q59 0 97 69.5t38 132.5q0 41 -19.5 67t-56.5 26z" />
    <glyph glyph-name="A" unicode="A" horiz-adv-x="627" 
d="M427 0l-31 118h-191l-33 -118h-175l219 688h195l219 -688h-203zM320 435q-7 30 -9.5 52.5t-4.5 30.5q-2 -14 -5.5 -30.5t-12.5 -52.5l-55 -206h138z" />
    <glyph glyph-name="B" unicode="B" horiz-adv-x="619" 
d="M295 -10q-152 0 -236 41v626q40 20 97.5 30.5t131.5 10.5q139 0 210 -53t71 -136q0 -58 -35.5 -96t-81.5 -51q53 -18 93.5 -63t40.5 -107q0 -101 -74.5 -151.5t-216.5 -50.5zM290 589q-25 0 -43 -6v-181l24 -1q62 0 86 22t24 74q0 47 -21.5 69.5t-69.5 22.5zM271 308
l-24 -1v-194q19 -7 45 -7q50 0 74 22t24 73q0 55 -26 81t-93 26z" />
    <glyph glyph-name="C" unicode="C" horiz-adv-x="498" 
d="M317 -10q-139 0 -208.5 102t-69.5 252q0 148 71 251t208 103q101 0 157 -41l-40 -120q-29 19 -73 19q-64 0 -92 -60t-28 -150q0 -87 28.5 -145.5t90.5 -58.5q24 0 39.5 4.5t31.5 13.5l43 -128q-56 -42 -158 -42z" />
    <glyph glyph-name="D" unicode="D" horiz-adv-x="629" 
d="M278 -10q-135 0 -219 41v626q42 18 95 29.5t114 11.5q170 0 246 -96.5t76 -257.5q0 -158 -73 -256t-239 -98zM280 568l-26 -3v-436q14 -4 29 -4q60 0 84.5 47.5t24.5 176.5q0 121 -24.5 170t-87.5 49z" />
    <glyph glyph-name="E" unicode="E" horiz-adv-x="468" 
d="M59 0v688h368v-132h-170v-143h146v-129h-146v-152h170v-132h-368z" />
    <glyph glyph-name="F" unicode="F" horiz-adv-x="462" 
d="M257 556v-143h145v-129h-145v-284h-198v688h367v-132h-169z" />
    <glyph glyph-name="G" unicode="G" horiz-adv-x="621" 
d="M362 -10q-168 0 -245.5 94.5t-77.5 262.5q0 155 85.5 253t244.5 98q61 0 108.5 -10.5t85.5 -31.5l-57 -121q-19 11 -45 17t-67 6q-78 0 -117 -51t-39 -163q0 -217 111 -217q11 0 20.5 2t13.5 4v163h-64v117h247v-381q-36 -21 -84 -31.5t-120 -10.5z" />
    <glyph glyph-name="H" unicode="H" horiz-adv-x="646" 
d="M389 0v284h-132v-284h-198v688h198v-275h132v275h198v-688h-198z" />
    <glyph glyph-name="I" unicode="I" horiz-adv-x="317" 
d="M60 0v688h198v-688h-198z" />
    <glyph glyph-name="J" unicode="J" horiz-adv-x="317" 
d="M-34 -220v136q42 4 68 34t26 83v655h198v-633q0 -133 -80 -204t-212 -71z" />
    <glyph glyph-name="K" unicode="K" horiz-adv-x="627" 
d="M402 0l-143 333l-2 -333h-197v688h197v-306l151 306h200l-174 -315l188 -373h-220z" />
    <glyph glyph-name="L" unicode="L" horiz-adv-x="445" 
d="M60 0v688h198v-556h158v-132h-356z" />
    <glyph glyph-name="M" unicode="M" horiz-adv-x="807" 
d="M588 0l-25 336q0 26 -0.5 47.5t-1.5 38.5q-4 -16 -7.5 -31.5t-15 -54l-21 -71.5l-40.5 -135.5t-41 -129.5h-91q-3 8 -28 90l-43.5 144l-28 94t-15 55l-9.5 39q-1 -15 -2 -43.5t-1 -42.5l-24 -336h-162l68 688h189l91 -328q6 -23 11 -45.5l7 -31.5l10 35l12 41l98 329h188
l69 -688h-187z" />
    <glyph glyph-name="N" unicode="N" horiz-adv-x="657" 
d="M451 0l-197 329q-12 21 -19 36.5l-13 28.5q1 -13 1.5 -30t0.5 -40v-324h-165v688h167l175 -288q13 -21 20 -35.5l13 -27.5q-1 12 -1.5 28.5t-0.5 37.5v285h166v-688h-147z" />
    <glyph glyph-name="O" unicode="O" horiz-adv-x="636" 
d="M319 -10q-141 0 -210.5 99t-69.5 255t69 255t211 99q141 0 209.5 -98.5t68.5 -255.5q0 -158 -68 -256t-210 -98zM319 569q-46 0 -62 -60.5t-16 -157.5q0 -100 15.5 -158.5t62.5 -58.5q45 0 61 60.5t16 156.5q0 100 -15.5 159t-61.5 59z" />
    <glyph glyph-name="P" unicode="P" horiz-adv-x="597" 
d="M270 244l-18 1v-245h-193v657q43 19 100.5 30t126.5 11q146 0 213.5 -62t67.5 -164q0 -105 -73 -166.5t-224 -61.5zM287 588q-12 0 -22.5 -3t-12.5 -3v-224l18 -1q61 0 85 26t24 90q0 61 -20 88t-72 27z" />
    <glyph glyph-name="Q" unicode="Q" horiz-adv-x="636" 
d="M482 42l102 -123l-142 -126l-83 201l-40 -3q-141 0 -210.5 99t-69.5 254q0 156 69 255t211 99q141 0 209.5 -98.5t68.5 -255.5q0 -98 -28 -176.5t-87 -125.5zM319 569q-46 0 -62 -60t-16 -157q0 -100 15.5 -158.5t62.5 -58.5q45 0 61 60.5t16 156.5q0 99 -15.5 158
t-61.5 59z" />
    <glyph glyph-name="R" unicode="R" horiz-adv-x="615" 
d="M388 0l-132 295l-2 -295h-194v657q45 20 101 30.5t123 10.5q146 0 218.5 -58t72.5 -162q0 -57 -39.5 -105t-95.5 -63l163 -310h-215zM286 586q-19 0 -32 -5v-235l23 -2q52 0 78.5 32.5t26.5 91.5q0 62 -20.5 90t-75.5 28z" />
    <glyph glyph-name="S" unicode="S" horiz-adv-x="493" 
d="M215 -10q-65 0 -112.5 11t-77.5 31l44 138q18 -13 46 -22.5t60 -9.5q34 0 53.5 15.5t19.5 43.5q0 26 -18 45t-77 47t-90 79t-31 108q0 94 63 158t167 64q57 0 99.5 -11t71.5 -30l-40 -120q-22 13 -47 21t-53 8q-68 0 -68 -59q0 -47 86.5 -88.5t116.5 -91t30 -115.5
q0 -95 -68.5 -158.5t-174.5 -63.5z" />
    <glyph glyph-name="T" unicode="T" horiz-adv-x="484" 
d="M341 556v-556h-198v556h-111v132h420v-132h-111z" />
    <glyph glyph-name="U" unicode="U" horiz-adv-x="621" 
d="M311 -11q-110 0 -181 57.5t-71 159.5v482h198v-480q0 -35 16.5 -52.5t44.5 -17.5q60 0 60 71v479h184v-481q0 -102 -70.5 -160t-180.5 -58z" />
    <glyph glyph-name="V" unicode="V" horiz-adv-x="588" 
d="M381 0h-172l-211 688h209l81 -358q5 -22 8 -42.5t6 -37.5q3 17 6 37.5t8 42.5l85 358h189z" />
    <glyph glyph-name="W" unicode="W" horiz-adv-x="852" 
d="M688 0h-174l-76 303q-6 22 -8 42t-4 28l-4.5 -28.5t-8.5 -41.5l-72 -303h-176l-151 688h193l58 -355q4 -28 6 -45t3 -32q1 9 4.5 27.5l9.5 49.5l76 355h139l75 -354q3 -16 6 -39.5l5 -38.5l4.5 35t6.5 43l60 354h179z" />
    <glyph glyph-name="X" unicode="X" horiz-adv-x="577" 
d="M359 0l-77 193l-82 -193h-202l182 349l-165 339h210l67 -180l82 180h189l-171 -315l186 -373h-219z" />
    <glyph glyph-name="Y" unicode="Y" horiz-adv-x="546" 
d="M370 281v-281h-197v281l-179 407h206l80 -234l86 234h187z" />
    <glyph glyph-name="Z" unicode="Z" horiz-adv-x="491" 
d="M14 0l196 556h-170v132h413l-185 -556h188v-132h-442z" />
    <glyph glyph-name="bracketleft" unicode="[" horiz-adv-x="377" 
d="M57 -215v1000h289v-106h-123v-787h123v-107h-289z" />
    <glyph glyph-name="backslash" unicode="\" horiz-adv-x="592" 
d="M474 -234l-470 977l114 56l470 -977z" />
    <glyph glyph-name="bracketright" unicode="]" horiz-adv-x="377" 
d="M31 -215v107h124v787h-124v106h289v-1000h-289z" />
    <glyph glyph-name="asciicircum" unicode="^" horiz-adv-x="630" 
d="M480 366l-164 181l-165 -181l-77 74l166 221q13 17 33.5 26.5t42.5 9.5q47 0 74 -36l166 -221z" />
    <glyph glyph-name="underscore" unicode="_" 
d="M-10 -233v114h602v-114h-602z" />
    <glyph glyph-name="grave" unicode="`" horiz-adv-x="274" 
d="M132 593l-136 141q7 14 26.5 21.5t48.5 7.5q25 0 52 -6t45 -17l67 -147h-103z" />
    <glyph glyph-name="a" unicode="a" horiz-adv-x="560" 
d="M280 -10q-251 0 -251 175q0 95 80 137t221 55v21q0 30 -21 42.5t-62 12.5q-37 0 -75.5 -9.5t-70.5 -23.5l-39 107q39 16 95.5 29t126.5 13q106 0 164.5 -49t58.5 -159v-310q-34 -18 -94 -29.5t-133 -11.5zM330 272q-59 0 -91.5 -22.5t-32.5 -76.5q0 -40 21.5 -59.5
t61.5 -19.5q27 0 41 7v171z" />
    <glyph glyph-name="b" unicode="b" horiz-adv-x="592" 
d="M265 -10q-72 0 -127 11.5t-85 29.5v754h190v-256q19 8 42.5 12.5t53.5 4.5q97 0 157.5 -70.5t60.5 -187.5q0 -146 -75.5 -222t-216.5 -76zM283 438q-25 0 -40 -7v-323q13 -5 34 -5q93 0 93 172q0 84 -17.5 123.5t-69.5 39.5z" />
    <glyph glyph-name="c" unicode="c" horiz-adv-x="425" 
d="M265 -10q-102 0 -166 74t-64 208q0 131 66 204t162 73q49 0 83 -10.5t55 -29.5l-37 -104q-22 19 -56 19q-81 0 -81 -151q0 -74 21 -112t60 -38q19 0 31.5 4.5t24.5 15.5l39 -113q-20 -18 -53.5 -29t-84.5 -11z" />
    <glyph glyph-name="d" unicode="d" horiz-adv-x="592" 
d="M314 -10q-130 0 -204.5 70t-74.5 209q0 125 66.5 200.5t171.5 75.5q50 0 76 -8v248h190v-754q-45 -21 -95.5 -31t-129.5 -10zM349 437q-10 3 -14.5 3.5t-15.5 0.5q-50 0 -73 -42t-23 -124q0 -166 93 -166q23 0 33 5v323z" />
    <glyph glyph-name="e" unicode="e" horiz-adv-x="566" 
d="M216 205q18 -87 112 -87q44 0 81.5 8t62.5 21l42 -116q-38 -19 -88.5 -30t-121.5 -11q-128 0 -198.5 77.5t-70.5 203.5t66 202t190 76q123 0 181 -78.5t58 -221.5zM283 440q-81 0 -81 -145l153 23q0 122 -72 122z" />
    <glyph glyph-name="f" unicode="f" horiz-adv-x="375" 
d="M276 415v-415h-190v415h-57v124h57v44q0 99 57.5 151.5t157.5 52.5q25 0 52 -3v-120q-42 0 -59.5 -13t-17.5 -54v-58h77v-124h-77z" />
    <glyph glyph-name="g" unicode="g" horiz-adv-x="587" 
d="M284 -228q-68 0 -124.5 11t-93.5 31l46 122q27 -14 63.5 -23t74.5 -9q53 0 76.5 20.5t23.5 60.5v26q-12 -6 -35 -9.5t-53 -3.5q-99 0 -163 69t-64 187q0 141 73.5 218t218.5 77q66 0 121 -11t86 -30v-509q0 -116 -68 -171.5t-182 -55.5zM350 434q-14 6 -35 6
q-49 0 -70.5 -40.5t-21.5 -132.5q0 -86 21 -124t69 -38q9 0 19 2t18 5v322z" />
    <glyph glyph-name="h" unicode="h" horiz-adv-x="598" 
d="M355 0v371q0 29 -15.5 45.5t-50.5 16.5q-26 0 -46 -10v-423h-190v785h190v-259q24 10 52.5 15.5t59.5 5.5q95 0 142.5 -47.5t47.5 -124.5v-375h-190z" />
    <glyph glyph-name="i" unicode="i" horiz-adv-x="299" 
d="M149 609q-41 0 -69.5 25t-28.5 61q0 35 28.5 60t69.5 25t70 -25t29 -60q0 -36 -28.5 -61t-70.5 -25zM54 0v539h190v-539h-190z" />
    <glyph glyph-name="j" unicode="j" horiz-adv-x="299" 
d="M151 609q-41 0 -70 25t-29 61q0 35 28.5 60t69.5 25t69.5 -25t28.5 -61q0 -35 -28 -60t-69 -25zM-29 -227v126q46 14 65 44.5t19 105.5v490h190v-464q0 -138 -75.5 -220t-198.5 -82z" />
    <glyph glyph-name="k" unicode="k" 
d="M376 0l-129 269l-2 -269h-190v785h190v-478l132 232h188l-151 -237l174 -302h-212z" />
    <glyph glyph-name="l" unicode="l" horiz-adv-x="299" 
d="M55 0v785h190v-785h-190z" />
    <glyph glyph-name="m" unicode="m" horiz-adv-x="901" 
d="M658 0v374q0 57 -65 57q-28 0 -48 -14v-417h-190v374q0 57 -66 57q-28 0 -46 -7v-424h-190v508q49 21 104.5 31t129.5 10q66 0 106 -12.5t67 -35.5q29 21 73.5 34.5t110.5 13.5q95 0 149.5 -48.5t54.5 -127.5v-373h-190z" />
    <glyph glyph-name="n" unicode="n" horiz-adv-x="598" 
d="M355 0v371q0 27 -15 44t-49 17q-14 0 -26 -2t-22 -5v-425h-190v508q44 20 104.5 30.5t135.5 10.5q132 0 192 -45.5t60 -130.5v-373h-190z" />
    <glyph glyph-name="o" unicode="o" horiz-adv-x="573" 
d="M286 -10q-118 0 -184.5 77.5t-66.5 202.5q0 124 66.5 201.5t184.5 77.5q119 0 185.5 -77t66.5 -202t-66.5 -202.5t-185.5 -77.5zM286 431q-36 0 -49.5 -40.5t-13.5 -117.5t13.5 -116t49.5 -39t49.5 39t13.5 116q0 76 -13.5 117t-49.5 41z" />
    <glyph glyph-name="p" unicode="p" horiz-adv-x="592" 
d="M319 -7q-28 0 -45 2t-31 6v-216h-190v723q39 18 95.5 29.5t128.5 11.5q130 0 205 -70t75 -208q0 -126 -66 -202t-172 -76zM276 438q-18 0 -33 -5v-324q12 -5 30 -5q96 0 96 166q0 88 -21 128t-72 40z" />
    <glyph glyph-name="q" unicode="q" horiz-adv-x="592" 
d="M350 -215v224q-20 -8 -42.5 -12.5t-49.5 -4.5q-97 0 -160 71t-63 188q0 135 70 216.5t222 81.5q71 0 123.5 -10.5t88.5 -30.5v-723h-189zM350 434q-14 6 -35 6q-46 0 -69 -41.5t-23 -131.5q0 -81 20.5 -121t66.5 -40q12 0 21.5 1.5t18.5 5.5v321z" />
    <glyph glyph-name="r" unicode="r" horiz-adv-x="377" 
d="M337 415q-32 15 -60 15q-19 0 -34 -6v-424h-190v508q45 22 120 30.5t197 8.5z" />
    <glyph glyph-name="s" unicode="s" horiz-adv-x="438" 
d="M190 -9q-52 0 -96 11t-73 29l48 120q17 -14 41 -22.5t51 -8.5q22 0 36 11t14 31t-13 34t-63 34.5t-75.5 58t-25.5 85.5q0 75 53 125t137 50q56 0 92.5 -9t76.5 -32l-45 -106q-14 11 -35 19t-44 8q-48 0 -48 -42q0 -37 65.5 -65.5t92.5 -66.5t27 -88q0 -77 -58 -126.5
t-158 -49.5z" />
    <glyph glyph-name="t" unicode="t" horiz-adv-x="386" 
d="M262 -10q-88 0 -132.5 46t-44.5 121v258h-56v124h56v110l190 48v-158h78v-124h-78v-242q0 -55 42 -55q16 0 36 8v-117q-11 -6 -36.5 -12.5t-54.5 -6.5z" />
    <glyph glyph-name="u" unicode="u" horiz-adv-x="592" 
d="M297 -10q-123 0 -183.5 45t-60.5 148v356h190v-370q0 -23 13.5 -37.5t43.5 -14.5q29 0 49 9v413h190v-507q-43 -21 -101.5 -31.5t-140.5 -10.5z" />
    <glyph glyph-name="v" unicode="v" horiz-adv-x="539" 
d="M364 0h-187l-171 539h202l57 -272q6 -29 8 -54t4 -36l4 33t12 57l62 272h178z" />
    <glyph glyph-name="w" unicode="w" horiz-adv-x="820" 
d="M662 0h-178l-61 245q-6 24 -8 44t-3 36q-1 -15 -3 -33t-10 -47l-63 -245h-177l-145 539h188l50 -273q6 -31 7 -50.5t2 -34.5l4.5 32t11.5 53l67 273h155l63 -273q6 -25 8.5 -50t4.5 -35q1 16 3 34t8 51l55 273h165z" />
    <glyph glyph-name="x" unicode="x" horiz-adv-x="543" 
d="M334 0l-69 149l-74 -149h-192l169 278l-152 261h198l65 -135l73 135h177l-157 -249l172 -290h-210z" />
    <glyph glyph-name="y" unicode="y" horiz-adv-x="539" 
d="M293 -215h-199l85 215l-173 539h201l55 -274q6 -33 9 -66q0 -11 1 -27q3 16 6 38t11 55l66 274h178z" />
    <glyph glyph-name="z" unicode="z" horiz-adv-x="450" 
d="M23 0l161 415h-142v124h375l-150 -415h152v-124h-396z" />
    <glyph glyph-name="braceleft" unicode="{" horiz-adv-x="422" 
d="M121 68v135q0 47 -26.5 65.5t-66.5 18.5v96q41 0 67 16.5t26 61.5v134q0 107 74.5 148.5t186.5 41.5v-92q-55 0 -77.5 -19.5t-22.5 -66.5v-153q0 -51 -27.5 -81t-73.5 -38q46 -10 73.5 -41t27.5 -85v-153q0 -45 23 -65.5t77 -20.5v-93q-114 0 -187.5 41t-73.5 150z" />
    <glyph glyph-name="bar" unicode="|" horiz-adv-x="260" 
d="M57 -215v1000h146v-1000h-146z" />
    <glyph glyph-name="braceright" unicode="}" horiz-adv-x="422" 
d="M301 203v-135q0 -108 -74 -149.5t-187 -41.5v93q55 0 77 20t22 66v153q0 53 28 84.5t74 39.5q-47 10 -74.5 39.5t-27.5 81.5v153q0 45 -22.5 65.5t-76.5 20.5v92q114 0 187.5 -40.5t73.5 -149.5v-134q0 -44 27 -61t66 -17v-96q-41 0 -67 -17.5t-26 -66.5z" />
    <glyph glyph-name="asciitilde" unicode="~" horiz-adv-x="630" 
d="M434 274h-12q-39 0 -101 30.5t-92 30.5h-12q-37 -4 -61.5 -25t-36.5 -53l-50 120q20 41 48.5 65t71.5 24h18q34 0 101 -30.5t89 -30.5h12q41 4 64 21.5t38 51.5l50 -121q-14 -39 -46.5 -61t-80.5 -22z" />
    <glyph glyph-name="Adieresis" unicode="&#xc4;" horiz-adv-x="627" 
d="M418 737q-32 0 -56 20t-24 49q0 30 23.5 50t56.5 20t57 -20t24 -50q0 -29 -24 -49t-57 -20zM208 737q-32 0 -56 20t-24 49q0 30 23.5 50t56.5 20t57 -20t24 -50q0 -29 -23.5 -49t-57.5 -20zM427 0l-31 118h-191l-33 -118h-175l219 688h195l219 -688h-203zM320 435
q-7 30 -9.5 52.5t-4.5 30.5q-2 -14 -5.5 -30.5t-12.5 -52.5l-55 -206h138z" />
    <glyph glyph-name="Aring" unicode="&#xc5;" horiz-adv-x="627" 
d="M313 732q-38 0 -65 27t-27 65t27 65t65 27t65 -27t27 -65t-27 -65t-65 -27zM427 0l-31 118h-191l-33 -118h-175l219 688h195l219 -688h-203zM313 863q-16 0 -27 -11t-11 -28q0 -16 11 -27t27 -11t27 11t11 27q0 15 -11 27t-27 12zM320 435q-7 30 -9.5 52.5t-4.5 30.5
q-2 -14 -5.5 -30.5t-12.5 -52.5l-55 -206h138z" />
    <glyph glyph-name="Ccedilla" unicode="&#xc7;" horiz-adv-x="498" 
d="M317 -10q-139 0 -208.5 102t-69.5 252q0 148 71 251t208 103q101 0 157 -41l-40 -120q-29 19 -73 19q-64 0 -92 -60t-28 -150q0 -87 28.5 -145.5t90.5 -58.5q24 0 39.5 4.5t31.5 13.5l43 -128q-56 -42 -158 -42zM129 -209l31 55q27 -3 49 -3q96 0 96 32q0 17 -26 19
t-90 2l29 50q117 0 160 -14.5t43 -54.5q0 -45 -52.5 -68t-149.5 -23q-37 0 -90 5z" />
    <glyph glyph-name="Eacute" unicode="&#xc9;" horiz-adv-x="466" 
d="M267 739h-103l67 147q18 11 45 17t55 6q29 0 47.5 -6.5t24.5 -21.5zM59 0v688h368v-132h-170v-143h146v-129h-146v-152h170v-132h-368z" />
    <glyph glyph-name="Ntilde" unicode="&#xd1;" horiz-adv-x="657" 
d="M413 743q-29 0 -81.5 21t-73.5 19q-25 0 -41 -14t-26 -38l-35 83q13 28 34 44t56 16q21 0 70 -21.5t72 -19.5q26 0 42 13t26 37l36 -84q-20 -56 -79 -56zM451 0l-197 329q-12 21 -19 36.5l-13 28.5q1 -13 1.5 -30t0.5 -40v-324h-165v688h167l175 -288q13 -21 20 -35.5
l13 -27.5q-1 12 -1.5 28.5t-0.5 37.5v285h166v-688h-147z" />
    <glyph glyph-name="Odieresis" unicode="&#xd6;" horiz-adv-x="636" 
d="M423 737q-32 0 -56 20t-24 49q0 30 23.5 50t56.5 20t57 -20t24 -50q0 -29 -24 -49t-57 -20zM213 737q-32 0 -56 20t-24 49q0 30 23.5 50t56.5 20t57 -20t24 -50q0 -29 -23.5 -49t-57.5 -20zM319 -10q-141 0 -210.5 99t-69.5 255t69 255t211 99q141 0 209.5 -98.5
t68.5 -255.5q0 -158 -68 -256t-210 -98zM319 569q-46 0 -62 -60.5t-16 -157.5q0 -100 15.5 -158.5t62.5 -58.5q45 0 61 60.5t16 156.5q0 100 -15.5 159t-61.5 59z" />
    <glyph glyph-name="Udieresis" unicode="&#xdc;" horiz-adv-x="621" 
d="M422 737q-32 0 -55.5 20t-23.5 49q0 30 23 50t56 20t57 -20t24 -50q0 -29 -23.5 -49t-57.5 -20zM212 737q-32 0 -55.5 20t-23.5 49q0 30 23 50t56 20t57 -20t24 -50q0 -29 -23.5 -49t-57.5 -20zM311 -11q-110 0 -181 57.5t-71 159.5v482h198v-480q0 -35 16.5 -52.5
t44.5 -17.5q60 0 60 71v479h184v-481q0 -102 -70.5 -160t-180.5 -58z" />
    <glyph glyph-name="aacute" unicode="&#xe1;" horiz-adv-x="560" 
d="M330 593h-103l67 147q17 10 43.5 16.5t53.5 6.5t47.5 -7.5t27.5 -21.5zM280 -10q-251 0 -251 175q0 95 80 137t221 55v21q0 30 -21 42.5t-62 12.5q-37 0 -75.5 -9.5t-70.5 -23.5l-39 107q39 16 95.5 29t126.5 13q106 0 164.5 -49t58.5 -159v-310q-34 -18 -94 -29.5
t-133 -11.5zM330 272q-59 0 -91.5 -22.5t-32.5 -76.5q0 -40 21.5 -59.5t61.5 -19.5q27 0 41 7v171z" />
    <glyph glyph-name="agrave" unicode="&#xe0;" horiz-adv-x="560" 
d="M267 593l-136 141q7 14 26.5 21.5t48.5 7.5q25 0 52 -6t45 -17l67 -147h-103zM280 -10q-251 0 -251 175q0 95 80 137t221 55v21q0 30 -21 42.5t-62 12.5q-37 0 -75.5 -9.5t-70.5 -23.5l-39 107q39 16 95.5 29t126.5 13q106 0 164.5 -49t58.5 -159v-310q-34 -18 -94 -29.5
t-133 -11.5zM330 272q-59 0 -91.5 -22.5t-32.5 -76.5q0 -40 21.5 -59.5t61.5 -19.5q27 0 41 7v171z" />
    <glyph glyph-name="acircumflex" unicode="&#xe2;" horiz-adv-x="560" 
d="M395 580l-107 74l-107 -74l-51 46l108 109q20 20 50 20q29 0 49 -20l108 -109zM280 -10q-251 0 -251 175q0 95 80 137t221 55v21q0 30 -21 42.5t-62 12.5q-37 0 -75.5 -9.5t-70.5 -23.5l-39 107q39 16 95.5 29t126.5 13q106 0 164.5 -49t58.5 -159v-310
q-34 -18 -94 -29.5t-133 -11.5zM330 272q-59 0 -91.5 -22.5t-32.5 -76.5q0 -40 21.5 -59.5t61.5 -19.5q27 0 41 7v171z" />
    <glyph glyph-name="adieresis" unicode="&#xe4;" horiz-adv-x="560" 
d="M394 594q-33 0 -56 20t-23 50q0 29 23 49t56 20t57 -20t24 -49q0 -30 -23.5 -50t-57.5 -20zM184 594q-33 0 -56 20t-23 50q0 29 23 49t56 20t57 -20t24 -49q0 -30 -23.5 -50t-57.5 -20zM280 -10q-251 0 -251 175q0 95 80 137t221 55v21q0 30 -21 42.5t-62 12.5
q-37 0 -75.5 -9.5t-70.5 -23.5l-39 107q39 16 95.5 29t126.5 13q106 0 164.5 -49t58.5 -159v-310q-34 -18 -94 -29.5t-133 -11.5zM330 272q-59 0 -91.5 -22.5t-32.5 -76.5q0 -40 21.5 -59.5t61.5 -19.5q27 0 41 7v171z" />
    <glyph glyph-name="atilde" unicode="&#xe3;" horiz-adv-x="560" 
d="M372 596q-29 0 -81 21.5t-75 19.5q-26 0 -40.5 -13.5t-25.5 -39.5l-35 83q13 27 32.5 42t51.5 18q25 0 76 -21t72 -19q25 0 41.5 13t26.5 36l36 -84q-10 -25 -30.5 -40.5t-48.5 -15.5zM280 -10q-251 0 -251 175q0 95 80 137t221 55v21q0 30 -21 42.5t-62 12.5
q-37 0 -75.5 -9.5t-70.5 -23.5l-39 107q39 16 95.5 29t126.5 13q106 0 164.5 -49t58.5 -159v-310q-34 -18 -94 -29.5t-133 -11.5zM330 272q-59 0 -91.5 -22.5t-32.5 -76.5q0 -40 21.5 -59.5t61.5 -19.5q27 0 41 7v171z" />
    <glyph glyph-name="aring" unicode="&#xe5;" horiz-adv-x="560" 
d="M289 585q-38 0 -65.5 26.5t-27.5 65.5q0 38 27 65t66 27q38 0 65 -27t27 -65t-27 -65t-65 -27zM280 -10q-251 0 -251 175q0 95 80 137t221 55v21q0 30 -21 42.5t-62 12.5q-37 0 -75.5 -9.5t-70.5 -23.5l-39 107q39 16 95.5 29t126.5 13q106 0 164.5 -49t58.5 -159v-310
q-34 -18 -94 -29.5t-133 -11.5zM289 716q-17 0 -28 -11t-11 -28q0 -16 11 -27t28 -11q16 0 27 11t11 27q0 17 -11 28t-27 11zM330 272q-59 0 -91.5 -22.5t-32.5 -76.5q0 -40 21.5 -59.5t61.5 -19.5q27 0 41 7v171z" />
    <glyph glyph-name="ccedilla" unicode="&#xe7;" horiz-adv-x="425" 
d="M265 -10q-102 0 -166 74t-64 208q0 131 66 204t162 73q49 0 83 -10.5t55 -29.5l-37 -104q-22 19 -56 19q-81 0 -81 -151q0 -74 21 -112t60 -38q19 0 31.5 4.5t24.5 15.5l39 -113q-20 -18 -53.5 -29t-84.5 -11zM73 -209l30 55q27 -3 49 -3q96 0 96 32q0 17 -26 19t-90 2
l29 50q118 0 161 -14.5t43 -54.5q0 -45 -52.5 -68t-149.5 -23q-37 0 -90 5z" />
    <glyph glyph-name="eacute" unicode="&#xe9;" horiz-adv-x="566" 
d="M330 593h-103l67 147q17 10 43.5 16.5t53.5 6.5t47.5 -7.5t27.5 -21.5zM216 205q18 -87 112 -87q44 0 81.5 8t62.5 21l42 -116q-38 -19 -88.5 -30t-121.5 -11q-128 0 -198.5 77.5t-70.5 203.5t66 202t190 76q123 0 181 -78.5t58 -221.5zM283 440q-81 0 -81 -145l153 23
q0 122 -72 122z" />
    <glyph glyph-name="egrave" unicode="&#xe8;" horiz-adv-x="566" 
d="M259 593l-136 141q7 14 26.5 21.5t48.5 7.5q25 0 52 -6t45 -17l67 -147h-103zM216 205q18 -87 112 -87q44 0 81.5 8t62.5 21l42 -116q-38 -19 -88.5 -30t-121.5 -11q-128 0 -198.5 77.5t-70.5 203.5t66 202t190 76q123 0 181 -78.5t58 -221.5zM283 440q-81 0 -81 -145
l153 23q0 122 -72 122z" />
    <glyph glyph-name="ecircumflex" unicode="&#xea;" horiz-adv-x="566" 
d="M395 580l-107 74l-106 -74l-51 46l108 109q10 10 22 15t27 5q30 0 50 -20l108 -109zM216 205q18 -87 112 -87q44 0 81.5 8t62.5 21l42 -116q-38 -19 -88.5 -30t-121.5 -11q-128 0 -198.5 77.5t-70.5 203.5t66 202t190 76q123 0 181 -78.5t58 -221.5zM283 440
q-81 0 -81 -145l153 23q0 122 -72 122z" />
    <glyph glyph-name="edieresis" unicode="&#xeb;" horiz-adv-x="566" 
d="M394 594q-33 0 -56.5 20.5t-23.5 49.5t23 49t57 20q33 0 57 -20t24 -49q0 -30 -24 -50t-57 -20zM185 594q-33 0 -56.5 20.5t-23.5 49.5t23 49t57 20q32 0 56 -20t24 -49q0 -30 -23.5 -50t-56.5 -20zM216 205q18 -87 112 -87q44 0 81.5 8t62.5 21l42 -116
q-38 -19 -88.5 -30t-121.5 -11q-128 0 -198.5 77.5t-70.5 203.5t66 202t190 76q123 0 181 -78.5t58 -221.5zM283 440q-81 0 -81 -145l153 23q0 122 -72 122z" />
    <glyph glyph-name="iacute" unicode="&#xed;" horiz-adv-x="299" 
d="M171 593h-103l67 147q17 10 43.5 16.5t53.5 6.5t47.5 -7.5t27.5 -21.5zM54 0v539h190v-539h-190z" />
    <glyph glyph-name="igrave" unicode="&#xec;" horiz-adv-x="299" 
d="M128 593l-136 141q7 14 26.5 21.5t48.5 7.5q25 0 52 -6t45 -17l67 -147h-103zM54 0v539h190v-539h-190z" />
    <glyph glyph-name="icircumflex" unicode="&#xee;" horiz-adv-x="299" 
d="M256 580l-106 74l-107 -74l-51 46l108 109q10 10 22 15t27 5q30 0 50 -20l108 -109zM55 0v539h190v-539h-190z" />
    <glyph glyph-name="idieresis" unicode="&#xef;" horiz-adv-x="299" 
d="M254 594q-33 0 -56.5 20.5t-23.5 49.5t23 49t57 20q32 0 56 -20t24 -49q0 -30 -23.5 -50t-56.5 -20zM44 594q-33 0 -56 20t-23 50q0 29 23 49t56 20t57 -20t24 -49q0 -30 -24 -50t-57 -20zM54 0v539h190v-539h-190z" />
    <glyph glyph-name="ntilde" unicode="&#xf1;" horiz-adv-x="598" 
d="M386 596q-29 0 -81 21.5t-74 19.5q-25 0 -40 -13.5t-27 -39.5l-35 83q12 26 32.5 41.5t52.5 18.5q26 0 76 -21t71 -19q26 0 42.5 13t26.5 36l36 -84q-10 -25 -31 -40.5t-49 -15.5zM355 0v373q0 59 -64 59q-14 0 -26 -2t-22 -5v-425h-190v508q43 19 104.5 30t136.5 11
q130 0 190.5 -42.5t60.5 -132.5v-374h-190z" />
    <glyph glyph-name="oacute" unicode="&#xf3;" horiz-adv-x="573" 
d="M324 593h-103l67 147q17 10 43.5 16.5t53.5 6.5t47.5 -7.5t27.5 -21.5zM286 -10q-118 0 -184.5 77.5t-66.5 202.5q0 124 66.5 201.5t184.5 77.5q119 0 185.5 -77t66.5 -202t-66.5 -202.5t-185.5 -77.5zM286 431q-36 0 -49.5 -40.5t-13.5 -117.5t13.5 -116t49.5 -39
t49.5 39t13.5 116q0 76 -13.5 117t-49.5 41z" />
    <glyph glyph-name="ograve" unicode="&#xf2;" horiz-adv-x="573" 
d="M256 593l-136 141q7 14 26.5 21.5t48.5 7.5q25 0 52 -6t45 -17l67 -147h-103zM286 -10q-118 0 -184.5 77.5t-66.5 202.5q0 124 66.5 201.5t184.5 77.5q119 0 185.5 -77t66.5 -202t-66.5 -202.5t-185.5 -77.5zM286 431q-36 0 -49.5 -40.5t-13.5 -117.5t13.5 -116t49.5 -39
t49.5 39t13.5 116q0 76 -13.5 117t-49.5 41z" />
    <glyph glyph-name="ocircumflex" unicode="&#xf4;" horiz-adv-x="573" 
d="M393 580l-107 74l-106 -74l-51 46l108 109q10 10 22 15t27 5q30 0 50 -20l108 -109zM286 -10q-118 0 -184.5 77.5t-66.5 202.5q0 124 66.5 201.5t184.5 77.5q119 0 185.5 -77t66.5 -202t-66.5 -202.5t-185.5 -77.5zM286 431q-36 0 -49.5 -40.5t-13.5 -117.5t13.5 -116
t49.5 -39t49.5 39t13.5 116q0 76 -13.5 117t-49.5 41z" />
    <glyph glyph-name="odieresis" unicode="&#xf6;" horiz-adv-x="573" 
d="M391 594q-33 0 -56.5 20.5t-23.5 49.5t23 49t57 20q32 0 56 -20t24 -49q0 -30 -23.5 -50t-56.5 -20zM181 594q-33 0 -56.5 20.5t-23.5 49.5t23 49t57 20q33 0 57 -20t24 -49q0 -30 -24 -50t-57 -20zM286 -10q-118 0 -184.5 77.5t-66.5 202.5q0 124 66.5 201.5t184.5 77.5
q119 0 185.5 -77t66.5 -202t-66.5 -202.5t-185.5 -77.5zM286 431q-36 0 -49.5 -40.5t-13.5 -117.5t13.5 -116t49.5 -39t49.5 39t13.5 116q0 76 -13.5 117t-49.5 41z" />
    <glyph glyph-name="otilde" unicode="&#xf5;" horiz-adv-x="573" 
d="M375 596q-29 0 -81 21.5t-74 19.5q-25 0 -41 -14t-26 -39l-35 83q12 26 32.5 41.5t52.5 18.5q25 0 75 -21t72 -19q25 0 41.5 13t26.5 36l36 -84q-20 -56 -79 -56zM286 -10q-118 0 -184.5 77.5t-66.5 202.5q0 124 66.5 201.5t184.5 77.5q119 0 185.5 -77t66.5 -202
t-66.5 -202.5t-185.5 -77.5zM286 431q-36 0 -49.5 -40.5t-13.5 -117.5t13.5 -116t49.5 -39t49.5 39t13.5 116q0 76 -13.5 117t-49.5 41z" />
    <glyph glyph-name="uacute" unicode="&#xfa;" horiz-adv-x="592" 
d="M333 593h-103l68 147q17 10 43.5 16.5t53.5 6.5t47.5 -7.5t26.5 -21.5zM297 -10q-123 0 -183.5 45t-60.5 148v356h190v-370q0 -23 13.5 -37.5t43.5 -14.5q29 0 49 9v413h190v-507q-43 -21 -101.5 -31.5t-140.5 -10.5z" />
    <glyph glyph-name="ugrave" unicode="&#xf9;" horiz-adv-x="592" 
d="M272 593l-136 141q7 14 26.5 21.5t48.5 7.5q25 0 52 -6t45 -17l67 -147h-103zM297 -10q-123 0 -183.5 45t-60.5 148v356h190v-370q0 -23 13.5 -37.5t43.5 -14.5q29 0 49 9v413h190v-507q-43 -21 -101.5 -31.5t-140.5 -10.5z" />
    <glyph glyph-name="ucircumflex" unicode="&#xfb;" horiz-adv-x="592" 
d="M403 580l-107 74l-107 -74l-50 46l107 109q19 20 50 20q30 0 50 -20l108 -109zM297 -10q-123 0 -183.5 45t-60.5 148v356h190v-370q0 -23 13.5 -37.5t43.5 -14.5q29 0 49 9v413h190v-507q-43 -21 -101.5 -31.5t-140.5 -10.5z" />
    <glyph glyph-name="udieresis" unicode="&#xfc;" horiz-adv-x="592" 
d="M400 594q-33 0 -56 20t-23 50q0 29 23 49t56 20t57 -20t24 -49q0 -30 -23.5 -50t-57.5 -20zM190 594q-33 0 -56 20t-23 50q0 29 23 49t56 20t57 -20t24 -49q0 -30 -23.5 -50t-57.5 -20zM297 -10q-123 0 -183.5 45t-60.5 148v356h190v-370q0 -23 13.5 -37.5t43.5 -14.5
q29 0 49 9v413h190v-507q-43 -21 -101.5 -31.5t-140.5 -10.5z" />
    <glyph glyph-name="dagger" unicode="&#x2020;" horiz-adv-x="629" 
d="M397 369l15 -584h-195l14 584l-196 -14v191l196 -14l-14 253h195l-15 -253l197 14v-191z" />
    <glyph glyph-name="degree" unicode="&#xb0;" horiz-adv-x="413" 
d="M206 379q-67 0 -114 47t-47 114t47 114t114 47q66 0 114 -47t48 -114t-47 -114t-115 -47zM206 615q-31 0 -53 -22t-22 -53t22 -53t53 -22q32 0 54 21t22 54q0 31 -22 53t-54 22z" />
    <glyph glyph-name="cent" unicode="&#xa2;" 
d="M332 107l12 -107h-110l14 112q-77 17 -121.5 78t-44.5 160q0 95 46 155.5t121 77.5l-12 105h108l-11 -100q67 -6 102 -33l-36 -91q-11 7 -23.5 11t-29.5 4q-83 0 -83 -128q0 -64 21.5 -96t61.5 -32q32 0 54 16l37 -100q-18 -14 -43.5 -23t-62.5 -9z" />
    <glyph glyph-name="sterling" unicode="&#xa3;" 
d="M55 0q113 124 113 238q0 38 -10 69h-98v109h68q-5 20 -9 45t-4 52q0 74 56.5 129t166.5 55q64 0 111 -11t77 -28l-39 -115q-17 9 -42 15.5t-56 6.5q-48 0 -71.5 -25.5t-23.5 -73.5q0 -25 7 -50h136v-109h-120q2 -11 3 -25.5t1 -29.5q0 -26 -8.5 -53t-18.5 -42h238v-157
h-477z" />
    <glyph glyph-name="section" unicode="&#xa7;" 
d="M414 60q29 -29 42 -59.5t13 -67.5q0 -65 -54 -110t-142 -45q-64 0 -101 10.5t-70 32.5l40 110q19 -13 43 -22t52 -9q59 0 59 42q0 15 -7 28.5t-27 30.5l-113 95q-49 41 -69 80t-20 93q0 53 28.5 94t75.5 71q-23 25 -34 48.5t-11 59.5q0 64 50 108.5t135 44.5
q57 0 95.5 -10.5t69.5 -29.5l-39 -99q-15 10 -37.5 18t-48.5 8t-40.5 -12t-14.5 -33q0 -19 7.5 -32t34.5 -35l107 -89q46 -39 65.5 -75.5t19.5 -83.5q0 -49 -29.5 -89.5t-79.5 -72.5zM337 283l-100 84q-19 -12 -31.5 -30.5t-12.5 -40.5q0 -25 8.5 -43t31.5 -37l99 -82
q45 32 45 71q0 22 -8.5 40.5t-31.5 37.5z" />
    <glyph glyph-name="bullet" unicode="&#x2022;" horiz-adv-x="426" 
d="M213 200q-69 0 -117.5 48.5t-48.5 117.5t48.5 117.5t117.5 48.5q68 0 117 -49t49 -117q0 -69 -48.5 -117.5t-117.5 -48.5z" />
    <glyph glyph-name="paragraph" unicode="&#xb6;" 
d="M509 607v-822h-111v822h-89v-822h-111v498q-82 15 -130 66.5t-48 129.5q0 106 72.5 157.5t188.5 51.5h263v-81h-35z" />
    <glyph glyph-name="germandbls" unicode="&#xdf;" horiz-adv-x="628" 
d="M403 -8q-84 0 -120 33l29 122q13 -10 24 -14t27 -4q21 0 34 12.5t13 34.5q0 36 -39 64.5t-55 57t-16 72.5q0 42 19.5 72t52.5 47q3 10 4 27t1 19q0 71 -17 101.5t-48 30.5q-34 0 -51.5 -36t-17.5 -122v-509h-189v493q0 137 67 219t191 82q113 0 181 -73t68 -179
q0 -23 -3 -46t-8 -41q-39 -8 -56.5 -23.5t-17.5 -46.5q0 -21 9.5 -35.5t43 -41.5t51 -59.5t17.5 -77.5q0 -85 -56 -132t-138 -47z" />
    <glyph glyph-name="registered" unicode="&#xae;" horiz-adv-x="791" 
d="M396 -11q-147 0 -251.5 103.5t-104.5 251.5t104.5 251.5t251.5 103.5t251 -103t104 -252t-104 -252t-251 -103zM396 631q-119 0 -202 -84t-83 -203t82.5 -202.5t202.5 -83.5q119 0 201.5 83.5t82.5 202.5q0 118 -82.5 202.5t-201.5 84.5zM459 150l-107 166h-6v-166h-76
v384q48 24 108 24q74 0 112.5 -35.5t38.5 -84.5q0 -45 -26 -74t-70 -41l122 -173h-96zM374 496q-13 0 -19.5 -2t-8.5 -2v-125h19q45 0 65.5 15t20.5 55q0 34 -22 46.5t-55 12.5z" />
    <glyph glyph-name="copyright" unicode="&#xa9;" horiz-adv-x="791" 
d="M396 -11q-147 0 -251.5 103.5t-104.5 251.5t104.5 251.5t251.5 103.5t251 -103t104 -252t-104 -252t-251 -103zM396 630q-119 0 -202 -84t-83 -202q0 -119 82.5 -202.5t202.5 -83.5q119 0 201.5 83.5t82.5 202.5q0 118 -83 202t-201 84zM399 138q-86 0 -147.5 60.5
t-61.5 147.5q0 86 61 147t148 61q50 0 87.5 -18.5t69.5 -54.5l-58 -48q-44 46 -99 46q-54 0 -93 -39t-39 -94q0 -54 39 -94t93 -40t99 48l61 -48q-71 -74 -160 -74z" />
    <glyph glyph-name="trademark" unicode="&#x2122;" horiz-adv-x="781" 
d="M653 348l-29 240l-69 -240h-76l-71 238l-27 -238h-84l52 340h105l65 -236l60 236h106l53 -340h-85zM210 623v-275h-87v275h-91v65h267v-65h-89z" />
    <glyph glyph-name="acute" unicode="&#xb4;" horiz-adv-x="274" 
d="M142 593h-103l67 147q17 10 43.5 16.5t53.5 6.5t47.5 -7.5t27.5 -21.5z" />
    <glyph glyph-name="dieresis" unicode="&#xa8;" horiz-adv-x="274" 
d="M241 594q-33 0 -56.5 20t-23.5 50q0 29 23.5 49t56.5 20t57 -20t24 -49q0 -30 -24 -50t-57 -20zM32 594q-33 0 -56.5 20.5t-23.5 49.5t23 49t57 20q32 0 56 -20t24 -49q0 -30 -23.5 -50t-56.5 -20z" />
    <glyph glyph-name="notequal" unicode="&#x2260;" 
d="M253 173l-64 -116l-74 39l43 77h-75v109h134l54 96h-188v109h246l62 112l73 -39l-40 -73h75v-109h-134l-54 -96h188v-109h-246z" />
    <glyph glyph-name="AE" unicode="&#xc6;" horiz-adv-x="764" 
d="M414 0l-19 118h-191l-45 -118h-177l290 688h393v-132h-180l32 -143h148v-129h-121l35 -152h157v-132h-322zM351 441q-4 28 -4.5 44.5t-0.5 24.5q-3 -14 -6.5 -28t-14.5 -42l-77 -207h135z" />
    <glyph glyph-name="Oslash" unicode="&#xd8;" horiz-adv-x="637" 
d="M319 -10q-97 0 -162 52l-58 -90l-50 32l64 100q-36 46 -54.5 114.5t-18.5 145.5q0 156 69 255t210 99q92 0 155 -47l53 84l51 -32l-59 -92q39 -47 58.5 -116t19.5 -151q0 -157 -68 -255.5t-210 -98.5zM319 582q-51 0 -71 -62.5t-20 -168.5q0 -26 1 -42t6 -33l154 242
q-10 32 -27 48t-43 16zM402 428l-154 -243q23 -64 71 -64q51 0 71 63t20 167q0 15 -0.5 33t-7.5 44z" />
    <glyph glyph-name="infinity" unicode="&#x221e;" horiz-adv-x="839" 
d="M605 146q-58 0 -101.5 23t-83.5 73q-44 -52 -84 -74t-98 -22q-87 0 -138.5 53.5t-51.5 139.5q0 82 52 137.5t138 55.5q55 0 95 -23.5t86 -74.5q43 51 82.5 74.5t100.5 23.5q85 0 137 -56t52 -137q0 -82 -51 -137.5t-135 -55.5zM602 408q-29 0 -49.5 -13t-51.5 -53
q31 -37 52.5 -51t49.5 -14q31 0 50 18t19 46t-19.5 47.5t-50.5 19.5zM235 400q-30 0 -49.5 -18.5t-19.5 -46.5q0 -26 19.5 -46.5t49.5 -20.5q27 0 49 14.5t53 52.5q-54 65 -102 65z" />
    <glyph glyph-name="plusminus" unicode="&#xb1;" 
d="M351 361v-138h-120v138h-148v108h148v138h120v-138h148v-108h-148zM83 65v109h416v-109h-416z" />
    <glyph glyph-name="lessequal" unicode="&#x2264;" 
d="M83 360v92l416 143v-109l-268 -80l268 -81v-109zM83 68v101h416v-101h-416z" />
    <glyph glyph-name="greaterequal" unicode="&#x2265;" 
d="M83 216v109l268 81l-268 80v109l416 -143v-92zM83 68v101h416v-101h-416z" />
    <glyph glyph-name="yen" unicode="&#xa5;" 
d="M445 437l93 7v-76l-120 7l-34 -72l154 6v-75l-157 7v-241h-180v241l-158 -7v75l155 -6l-34 72l-121 -7v76l94 -7l-117 251h193l84 -241l93 241h172z" />
    <glyph glyph-name="mu" unicode="&#xb5;" horiz-adv-x="598" 
d="M359 -9q-30 0 -61.5 5.5t-54.5 15.5v-227h-190v754h190v-424q9 -4 20 -7.5t34 -3.5q26 0 35.5 2t22.5 8v425h190v-507q-41 -21 -84 -31t-102 -10z" />
    <glyph glyph-name="partialdiff" unicode="&#x2202;" 
d="M240 -9q-94 0 -149.5 48t-55.5 132q0 124 80.5 193t184.5 69q24 0 52 -5q-21 63 -76.5 97t-115.5 45l59 126q127 -18 227 -113t100 -243q0 -139 -72 -244t-234 -105zM210 188q0 -77 49 -77q51 0 81 66.5t30 157.5q-17 4 -37 4q-58 0 -90.5 -42t-32.5 -109z" />
    <glyph glyph-name="summation" unicode="&#x3a3;" 
d="M26 -215l245 475l-237 428h499v-129h-220l158 -275l-185 -350h258v-149h-518z" />
    <glyph glyph-name="product" unicode="&#x220f;" horiz-adv-x="791" 
d="M396 -11q-147 0 -251.5 103.5t-104.5 251.5t104.5 251.5t251.5 103.5t251 -103t104 -252t-104 -252t-251 -103zM396 631q-119 0 -202 -84t-83 -203t82.5 -202.5t202.5 -83.5q119 0 201.5 83.5t82.5 202.5q0 118 -82.5 202.5t-201.5 84.5zM364 300v-164h-77v405
q52 25 114 25q69 0 112 -35t43 -99q0 -62 -43.5 -97.5t-118.5 -35.5q-12 1 -18 1h-12zM397 502q-18 0 -33 -5v-135q8 -1 22 -1q43 0 67.5 18t24.5 52q0 40 -22.5 55.5t-58.5 15.5z" />
    <glyph glyph-name="pi" unicode="&#x3c0;" horiz-adv-x="702" 
d="M405 168v255h-112v-423h-190v423h-63v116h618v-116h-63v-240q0 -29 10 -45t41 -16h12v-122q-32 -4 -64 -4q-117 0 -153 50.5t-36 121.5z" />
    <glyph glyph-name="integral" unicode="&#x222b;" 
d="M426 597v-602q0 -99 -62.5 -155.5t-165.5 -56.5q-23 0 -49 3v121q44 0 65.5 13.5t21.5 52.5v602q0 98 63 155t165 57q23 0 49 -3v-121q-44 0 -65.5 -13.5t-21.5 -52.5z" />
    <glyph glyph-name="ordfeminine" unicode="&#xaa;" horiz-adv-x="392" 
d="M199 333q-166 0 -166 113q0 65 51.5 91.5t144.5 34.5v11q0 35 -52 35q-26 0 -46.5 -5t-48.5 -16l-27 71q25 10 63.5 18.5t83.5 8.5q69 0 108 -32t39 -103v-201q-50 -26 -150 -26zM229 513q-39 -4 -59.5 -17.5t-20.5 -45.5q0 -48 53 -48q19 0 27 4v107z" />
    <glyph glyph-name="ordmasculine" unicode="&#xba;" horiz-adv-x="392" 
d="M196 333q-79 0 -123.5 50.5t-44.5 131.5q0 79 45 130t123 51q79 0 123.5 -50t44.5 -131q0 -80 -45 -131t-123 -51zM196 618q-24 0 -33.5 -26.5t-9.5 -74.5q0 -50 9 -74.5t34 -24.5q24 0 33 25t9 74q0 52 -8 76.5t-34 24.5z" />
    <glyph glyph-name="Omega" unicode="&#x3a9;" horiz-adv-x="709" 
d="M378 0q32 66 54 168t22 217q0 86 -25 135.5t-74 49.5q-51 0 -75.5 -48.5t-24.5 -136.5q0 -119 21 -217.5t56 -167.5h-298v132h111q-31 50 -56 125.5t-25 138.5q0 132 74.5 217t216.5 85q141 0 216 -84.5t75 -217.5q0 -62 -24.5 -136.5t-56.5 -127.5h110v-132h-297z" />
    <glyph glyph-name="ae" unicode="&#xe6;" horiz-adv-x="842" 
d="M496 205q8 -44 33.5 -66t76.5 -22q43 0 78.5 7.5t60.5 19.5l43 -113q-39 -19 -89 -30t-122 -11q-53 0 -91.5 18.5t-66.5 51.5q-21 -32 -61 -51t-106 -19q-106 0 -164.5 44t-58.5 131q0 92 78.5 135t215.5 57v21q0 30 -20 42.5t-60 12.5q-36 0 -73 -9t-71 -23l-39 106
q36 16 92.5 29t125.5 13q98 0 140 -63q25 28 67 45.5t84 17.5q121 0 179 -78.5t58 -222.5zM558 440q-75 0 -75 -143l149 22q0 64 -18.5 92.5t-55.5 28.5zM322 271q-60 -6 -91 -26.5t-31 -73.5q0 -39 16.5 -57.5t46.5 -18.5q29 0 44 16t15 43v117z" />
    <glyph glyph-name="oslash" unicode="&#xf8;" horiz-adv-x="579" 
d="M290 -10q-37 0 -65 7t-57 22l-48 -83l-39 23l49 84q-95 78 -95 227q0 124 68 201.5t186 77.5q66 0 118 -27l46 80l39 -22l-47 -81q47 -36 73 -96t26 -133q0 -125 -67.5 -202.5t-186.5 -77.5zM290 444q-43 0 -62.5 -46.5t-19.5 -123.5q0 -45 9 -80l126 218q-19 32 -53 32z
M362 355l-126 -218q19 -33 54 -33q42 0 61.5 46t19.5 123q0 46 -9 82z" />
    <glyph glyph-name="questiondown" unicode="&#xbf;" horiz-adv-x="478" 
d="M264 275q-43 0 -73.5 30.5t-30.5 74.5q0 43 30.5 73.5t73.5 30.5q44 0 74.5 -30.5t30.5 -73.5q0 -44 -30.5 -74.5t-74.5 -30.5zM281 -223q-115 0 -181.5 48t-66.5 128q0 65 46 107.5t103 60.5l11 96h144l17 -149q-56 -11 -88.5 -36t-32.5 -58q0 -30 21 -49t67 -19
q29 0 52 6.5t46 17.5l48 -113q-34 -17 -83 -28.5t-103 -11.5z" />
    <glyph glyph-name="exclamdown" unicode="&#xa1;" horiz-adv-x="352" 
d="M184 274q-43 0 -73.5 30.5t-30.5 73.5q0 44 30.5 74.5t73.5 30.5q44 0 74.5 -30.5t30.5 -74.5q0 -43 -30.5 -73.5t-74.5 -30.5zM71 -215l41 430h145l41 -430h-227z" />
    <glyph glyph-name="logicalnot" unicode="&#xac;" 
d="M376 126v145h-293v120h416v-265h-123z" />
    <glyph glyph-name="radical" unicode="&#x221a;" 
d="M390 0h-169l-127 385h-80v112h215l70 -274l110 562h166z" />
    <glyph glyph-name="florin" unicode="&#x192;" horiz-adv-x="628" 
d="M576 556q-6 3 -22.5 8t-36.5 5q-54 0 -70 -81l-14 -71h104v-123h-129l-61 -303q-20 -98 -79 -155t-147 -57q-37 0 -67.5 7.5t-53.5 20.5l23 131q28 -19 61 -19q31 0 48 21t29 80l55 274h-104v123h129l17 77q22 102 65.5 153t147.5 51q40 0 69.5 -5.5t57.5 -16.5z" />
    <glyph glyph-name="approxequal" unicode="&#x2248;" 
d="M380 353q-29 0 -89.5 27.5t-90.5 27.5q-42 0 -68 -12t-49 -34v121q20 19 46.5 30.5t70.5 11.5q35 0 90 -27t89 -27q44 0 71 12.5t49 36.5v-119q-21 -22 -48.5 -35t-70.5 -13zM380 128q-29 0 -89.5 27.5t-90.5 27.5q-42 0 -68 -12t-49 -34v120q20 20 46.5 31.5t70.5 11.5
q31 0 90.5 -27.5t88.5 -27.5q43 0 70.5 13.5t49.5 36.5v-120q-20 -21 -48 -34t-71 -13z" />
    <glyph glyph-name="Delta" unicode="&#x2206;" horiz-adv-x="625" 
d="M-4 0l217 688h198l218 -688h-633zM319 436l-14 68l-16 -68l-86 -323h199z" />
    <glyph glyph-name="guillemotleft" unicode="&#xab;" horiz-adv-x="564" 
d="M412 88l-148 246l148 246l104 -59l-113 -187l113 -187zM177 88l-147 246l147 246l104 -58l-112 -188l112 -187z" />
    <glyph glyph-name="guillemotright" unicode="&#xbb;" horiz-adv-x="564" 
d="M386 88l-104 59l113 187l-113 188l104 58l148 -246zM152 88l-104 59l113 187l-113 187l104 59l147 -246z" />
    <glyph glyph-name="ellipsis" unicode="&#x2026;" horiz-adv-x="974" 
d="M812 -10q-44 0 -74 30t-30 75q0 42 30 73t74 31t74 -30t30 -74q0 -43 -30 -74t-74 -31zM487 -10q-43 0 -73.5 30.5t-30.5 74.5q0 43 30.5 73.5t73.5 30.5q44 0 74.5 -30.5t30.5 -73.5q0 -44 -30.5 -74.5t-74.5 -30.5zM162 -10q-43 0 -73.5 30.5t-30.5 74.5
q0 43 30.5 73.5t73.5 30.5q44 0 74.5 -30.5t30.5 -73.5q0 -44 -30.5 -74.5t-74.5 -30.5z" />
    <glyph glyph-name="nonbreakingspace" unicode="&#xa0;" horiz-adv-x="264" 
 />
    <glyph glyph-name="Agrave" unicode="&#xc0;" horiz-adv-x="627" 
d="M269 739l-136 142q6 14 27 21t48 7q25 0 52 -6t45 -17l67 -147h-103zM427 0l-31 118h-191l-33 -118h-175l219 688h195l219 -688h-203zM320 435q-7 30 -9.5 52.5t-4.5 30.5q-2 -14 -5.5 -30.5t-12.5 -52.5l-55 -206h138z" />
    <glyph glyph-name="Atilde" unicode="&#xc3;" horiz-adv-x="627" 
d="M399 743q-29 0 -81 21t-74 19q-25 0 -41 -14t-26 -38l-35 83q13 28 34 44t56 16q22 0 71 -21.5t71 -19.5q27 0 43 13t26 37l35 -84q-20 -56 -79 -56zM427 0l-31 118h-191l-33 -118h-175l219 688h195l219 -688h-203zM320 435q-7 30 -9.5 52.5t-4.5 30.5q-2 -14 -5.5 -30.5
t-12.5 -52.5l-55 -206h138z" />
    <glyph glyph-name="Otilde" unicode="&#xd5;" horiz-adv-x="636" 
d="M408 743q-29 0 -81 21t-74 19q-18 0 -35.5 -10.5t-31.5 -41.5l-35 83q13 28 34 44t56 16q22 0 71 -21.5t71 -19.5q27 0 43 13t26 37l36 -84q-10 -25 -31 -40.5t-49 -15.5zM319 -10q-141 0 -210.5 99t-69.5 255t69 255t211 99q141 0 209.5 -98.5t68.5 -255.5
q0 -158 -68 -256t-210 -98zM319 569q-46 0 -62 -60.5t-16 -157.5q0 -100 15.5 -158.5t62.5 -58.5q45 0 61 60.5t16 156.5q0 100 -15.5 159t-61.5 59z" />
    <glyph glyph-name="OE" unicode="&#x152;" horiz-adv-x="775" 
d="M415 0q-14 -4 -34.5 -7t-48.5 -3q-145 0 -219 92t-74 262q0 171 73 262.5t219 91.5q26 0 45.5 -2.5t40.5 -7.5h319v-132h-170v-143h146v-129h-146v-152h170v-132h-321zM383 568q-8 3 -17.5 4.5t-23.5 1.5q-57 0 -80 -60t-23 -166q0 -107 23 -166.5t80 -59.5q10 0 20 1
t21 4v441z" />
    <glyph glyph-name="oe" unicode="&#x153;" horiz-adv-x="862" 
d="M516 204q9 -48 35.5 -67.5t72.5 -19.5q45 0 78.5 7t62.5 21l42 -114q-41 -21 -85 -31t-125 -10q-54 0 -96.5 20.5t-67.5 56.5q-25 -35 -63.5 -56t-87.5 -21q-116 0 -181.5 77.5t-65.5 202.5q0 123 66 201t181 78q47 0 85.5 -19t63.5 -53q24 33 66.5 52.5t89.5 19.5
q123 0 181 -79.5t58 -224.5zM577 441q-74 0 -74 -142l148 19q0 61 -19.5 92t-54.5 31zM282 431q-38 0 -51.5 -41.5t-13.5 -115.5q0 -77 13 -116.5t52 -39.5q37 0 50.5 41t13.5 114q0 77 -12.5 117.5t-51.5 40.5z" />
    <glyph glyph-name="endash" unicode="&#x2013;" horiz-adv-x="430" 
d="M0 281v108h430v-108h-430z" />
    <glyph glyph-name="emdash" unicode="&#x2014;" horiz-adv-x="860" 
d="M0 289v92h860v-92h-860z" />
    <glyph glyph-name="quotedblleft" unicode="&#x201c;" horiz-adv-x="569" 
d="M450 476q-15 -25 -40 -40.5t-62 -15.5q-35 0 -50.5 15t-20.5 41l170 309h97zM213 476q-15 -25 -40 -40.5t-62 -15.5q-35 0 -50.5 15t-20.5 41l170 309h97z" />
    <glyph glyph-name="quotedblright" unicode="&#x201d;" horiz-adv-x="569" 
d="M359 427h-97l94 309q16 25 42 41t61 16q34 0 50 -16t20 -41zM122 427h-97l94 309q16 24 41.5 40.5t60.5 16.5t50.5 -15.5t20.5 -41.5z" />
    <glyph glyph-name="quoteleft" unicode="&#x2018;" horiz-adv-x="332" 
d="M213 476q-15 -25 -40 -40.5t-62 -15.5q-35 0 -50.5 15t-20.5 41l170 309h97z" />
    <glyph glyph-name="quoteright" unicode="&#x2019;" horiz-adv-x="332" 
d="M122 427h-97l94 309q16 24 41.5 40.5t60.5 16.5t50.5 -15.5t20.5 -41.5z" />
    <glyph glyph-name="divide" unicode="&#xf7;" 
d="M291 420q-30 0 -51.5 21.5t-21.5 51.5q0 31 21 52t52 21q30 0 51.5 -21.5t21.5 -51.5t-21.5 -51.5t-51.5 -21.5zM83 287v86h416v-86h-416zM291 93q-30 0 -51.5 21.5t-21.5 51.5q0 31 21 52t52 21q30 0 51.5 -21.5t21.5 -51.5t-21.5 -51.5t-51.5 -21.5z" />
    <glyph glyph-name="lozenge" unicode="&#x25ca;" horiz-adv-x="628" 
d="M314 -2l-279 346l279 346l279 -346zM307 514l-129 -162l143 -177l129 161z" />
    <glyph glyph-name="ydieresis" unicode="&#xff;" horiz-adv-x="539" 
d="M385 594q-33 0 -56.5 20.5t-23.5 49.5t23 49t57 20q32 0 56 -20t24 -49q0 -30 -23.5 -50t-56.5 -20zM175 594q-33 0 -56.5 20.5t-23.5 49.5t23 49t57 20q33 0 57 -20t24 -49q0 -30 -24 -50t-57 -20zM293 -215h-201l91 215l-177 539h201l70 -338l78 338h178z" />
    <glyph glyph-name="Ydieresis" unicode="&#x178;" horiz-adv-x="546" 
d="M387 737q-32 0 -55.5 20t-23.5 49q0 30 23 50t56 20t57 -20t24 -50q0 -29 -23.5 -49t-57.5 -20zM177 737q-32 0 -55.5 20t-23.5 49q0 30 23 50t56 20t57 -20t24 -50q0 -29 -23.5 -49t-57.5 -20zM370 281v-281h-197v281l-179 407h209l80 -234l87 234h183z" />
    <glyph glyph-name="fraction" unicode="&#x2215;" horiz-adv-x="193" 
d="M-5 -32l-98 40l300 713l99 -40z" />
    <glyph glyph-name="currency" unicode="&#xa4;" 
d="M478 98l-68 68q-53 -36 -119 -36t-119 36l-68 -68l-59 60l68 67q-17 25 -27 56t-10 64q0 31 10 62t27 57l-68 67l59 59l68 -67q53 36 119 36q67 0 120 -36l67 67l59 -59l-67 -67q36 -53 36 -119q0 -67 -36 -120l67 -67zM291 444q-41 0 -70 -29t-29 -70t28.5 -70.5
t70.5 -29.5t71 29t29 71q0 41 -29 70t-71 29z" />
    <glyph glyph-name="guilsinglleft" unicode="&#x2039;" horiz-adv-x="329" 
d="M177 88l-147 246l147 246l104 -58l-112 -188l112 -187z" />
    <glyph glyph-name="guilsinglright" unicode="&#x203a;" horiz-adv-x="329" 
d="M152 88l-104 59l112 187l-112 188l104 58l147 -246z" />
    <glyph glyph-name="fi" unicode="&#xf001;" horiz-adv-x="646" 
d="M495 610q-41 0 -70.5 24.5t-29.5 60.5q0 35 29 60t71 25q41 0 71 -25t30 -60t-29 -60t-72 -25zM402 0v539h190v-539h-190zM276 415v-415h-190v415h-57v124h57v44q0 98 58 151t158 53q25 0 52 -3v-120q-42 0 -60 -13.5t-18 -53.5v-58h78v-124h-78z" />
    <glyph glyph-name="fl" unicode="&#xf002;" horiz-adv-x="650" 
d="M405 0v785h190v-785h-190zM276 415v-415h-190v415h-57v124h57v44q0 98 58 151t158 53q25 0 52 -3v-120q-42 0 -60 -13.5t-18 -53.5v-58h78v-124h-78z" />
    <glyph glyph-name="daggerdbl" unicode="&#x2021;" horiz-adv-x="629" 
d="M395 53l12 -268h-185l12 268l-199 -8v150l199 -8l-1 107l1 107l-199 -8v151l199 -9l-12 250h185l-12 -250l199 9v-151l-199 8l1 -107l-1 -107l199 8v-150z" />
    <glyph glyph-name="periodcentered" unicode="&#x2219;" horiz-adv-x="301" 
d="M150 239q-43 0 -73.5 30.5t-30.5 74.5t30 74t74 30q43 0 74 -30t31 -74t-30.5 -74.5t-74.5 -30.5z" />
    <glyph glyph-name="quotesinglbase" unicode="&#x201a;" horiz-adv-x="332" 
d="M122 -169h-97l94 309q16 25 41.5 40.5t61.5 15.5q35 0 50 -15t20 -41z" />
    <glyph glyph-name="quotedblbase" unicode="&#x201e;" horiz-adv-x="569" 
d="M359 -169h-97l94 309q16 25 41.5 40.5t61.5 15.5q34 0 50 -15.5t20 -40.5zM122 -169h-97l94 309q16 25 41 40.5t61 15.5q35 0 50.5 -15t20.5 -41z" />
    <glyph glyph-name="perthousand" unicode="&#x2030;" horiz-adv-x="1269" 
d="M1057 -10q-89 0 -125 69.5t-36 167.5t36 168.5t125 70.5t125 -70.5t36 -168.5q0 -96 -36 -166.5t-125 -70.5zM693 -10q-89 0 -125 70t-36 168q0 97 36 168t125 71t125 -70.5t36 -168.5q0 -97 -36 -167.5t-125 -70.5zM380 -11l-91 22l236 688l90 -23zM212 222
q-89 0 -125 69.5t-36 167.5q0 97 36 168t125 71t125 -70.5t36 -168.5q0 -96 -36 -166.5t-125 -70.5zM1057 386q-25 0 -33.5 -39.5t-8.5 -114.5q0 -77 8.5 -114.5t33.5 -37.5t33.5 39t8.5 113q0 79 -8 116.5t-34 37.5zM693 386q-25 0 -33.5 -39.5t-8.5 -113.5q0 -78 8 -115.5
t34 -37.5q25 0 33.5 39.5t8.5 113.5q0 78 -8 115.5t-34 37.5zM212 618q-25 0 -33.5 -39.5t-8.5 -114.5q0 -78 8 -115.5t34 -37.5q25 0 33.5 39.5t8.5 113.5q0 78 -8.5 116t-33.5 38z" />
    <glyph glyph-name="Acircumflex" unicode="&#xc2;" horiz-adv-x="627" 
d="M419 727l-106 74l-107 -74l-51 46l108 109q20 20 50 20q29 0 49 -20l108 -109zM427 0l-31 118h-191l-33 -118h-175l219 688h195l219 -688h-203zM320 435q-7 30 -9.5 52.5t-4.5 30.5q-2 -14 -5.5 -30.5t-12.5 -52.5l-55 -206h138z" />
    <glyph glyph-name="Ecircumflex" unicode="&#xca;" horiz-adv-x="466" 
d="M342 727l-107 74l-107 -74l-51 46l108 109q20 20 50 20q31 0 50 -20l108 -109zM59 0v688h368v-132h-170v-143h146v-129h-146v-152h170v-132h-368z" />
    <glyph glyph-name="Aacute" unicode="&#xc1;" horiz-adv-x="627" 
d="M351 739h-103l67 147q18 11 45 17t55 6q29 0 47.5 -6.5t24.5 -21.5zM427 0l-31 118h-191l-33 -118h-175l219 688h195l219 -688h-203zM320 435q-7 30 -9.5 52.5t-4.5 30.5q-2 -14 -5.5 -30.5t-12.5 -52.5l-55 -206h138z" />
    <glyph glyph-name="Edieresis" unicode="&#xcb;" horiz-adv-x="466" 
d="M346 737q-32 0 -56 20t-24 49q0 30 23.5 50t56.5 20t57 -20t24 -50q0 -29 -24 -49t-57 -20zM137 737q-32 0 -56 20t-24 49q0 30 23 50t57 20q33 0 56.5 -20t23.5 -50q0 -29 -23.5 -49t-56.5 -20zM60 0v688h368v-132h-170v-143h146v-129h-146v-152h170v-132h-368z" />
    <glyph glyph-name="Egrave" unicode="&#xc8;" horiz-adv-x="466" 
d="M219 739l-136 142q5 14 26.5 21t47.5 7q25 0 52 -6t45 -17l68 -147h-103zM59 0v688h368v-132h-170v-143h146v-129h-146v-152h170v-132h-368z" />
    <glyph glyph-name="Iacute" unicode="&#xcd;" horiz-adv-x="317" 
d="M181 739h-103l68 147q18 11 45 17t54 6q29 0 47.5 -6.5t24.5 -21.5zM60 0v688h198v-688h-198z" />
    <glyph glyph-name="Icircumflex" unicode="&#xce;" horiz-adv-x="317" 
d="M265 726l-106 75l-107 -75l-50 47l107 109q20 20 50 20q29 0 49 -20l108 -109zM60 0v688h198v-688h-198z" />
    <glyph glyph-name="Idieresis" unicode="&#xcf;" horiz-adv-x="317" 
d="M263 737q-32 0 -55.5 20t-23.5 49q0 30 23 50t56 20t57 -20t24 -50q0 -29 -23.5 -49t-57.5 -20zM53 737q-32 0 -56 20t-24 49q0 30 23.5 50t56.5 20t57 -20t24 -50q0 -29 -23.5 -49t-57.5 -20zM59 0v688h198v-688h-198z" />
    <glyph glyph-name="Igrave" unicode="&#xcc;" horiz-adv-x="317" 
d="M136 739l-136 142q6 14 27 21t48 7q25 0 52 -6t45 -17l67 -147h-103zM59 0v688h198v-688h-198z" />
    <glyph glyph-name="Oacute" unicode="&#xd3;" horiz-adv-x="636" 
d="M340 739h-103l67 147q18 11 45 17t55 6q29 0 47.5 -6.5t24.5 -21.5zM319 -10q-141 0 -210.5 99t-69.5 255t69 255t211 99q141 0 209.5 -98.5t68.5 -255.5q0 -158 -68 -256t-210 -98zM319 569q-46 0 -62 -60.5t-16 -157.5q0 -100 15.5 -158.5t62.5 -58.5q45 0 61 60.5
t16 156.5q0 100 -15.5 159t-61.5 59z" />
    <glyph glyph-name="Ocircumflex" unicode="&#xd4;" horiz-adv-x="636" 
d="M426 727l-107 74l-107 -74l-51 46l108 109q20 20 50 20q31 0 50 -20l108 -109zM319 -10q-141 0 -210.5 99t-69.5 255t69 255t211 99q141 0 209.5 -98.5t68.5 -255.5q0 -158 -68 -256t-210 -98zM319 569q-46 0 -62 -60.5t-16 -157.5q0 -100 15.5 -158.5t62.5 -58.5
q45 0 61 60.5t16 156.5q0 100 -15.5 159t-61.5 59z" />
    <glyph glyph-name="Ograve" unicode="&#xd2;" horiz-adv-x="636" 
d="M295 739l-136 142q6 14 27 21t48 7q25 0 52 -6t45 -17l67 -147h-103zM319 -10q-141 0 -210.5 99t-69.5 255t69 255t211 99q141 0 209.5 -98.5t68.5 -255.5q0 -158 -68 -256t-210 -98zM319 569q-46 0 -62 -60.5t-16 -157.5q0 -100 15.5 -158.5t62.5 -58.5q45 0 61 60.5
t16 156.5q0 100 -15.5 159t-61.5 59z" />
    <glyph glyph-name="Uacute" unicode="&#xda;" horiz-adv-x="621" 
d="M338 739h-103l67 147q18 11 45 17t55 6q29 0 47.5 -6.5t24.5 -21.5zM311 -11q-110 0 -181 57.5t-71 159.5v482h198v-480q0 -35 16.5 -52.5t44.5 -17.5q60 0 60 71v479h184v-481q0 -102 -70.5 -160t-180.5 -58z" />
    <glyph glyph-name="Ucircumflex" unicode="&#xdb;" horiz-adv-x="621" 
d="M424 727l-106 74l-107 -74l-51 46l108 109q10 10 22 15t27 5q30 0 50 -20l108 -109zM311 -11q-110 0 -181 57.5t-71 159.5v482h198v-480q0 -35 16.5 -52.5t44.5 -17.5q60 0 60 71v479h184v-481q0 -102 -70.5 -160t-180.5 -58z" />
    <glyph glyph-name="Ugrave" unicode="&#xd9;" horiz-adv-x="621" 
d="M299 739l-136 142q5 14 26.5 21t47.5 7q25 0 52 -6t45 -17l68 -147h-103zM311 -11q-110 0 -181 57.5t-71 159.5v482h198v-480q0 -35 16.5 -52.5t44.5 -17.5q60 0 60 71v479h184v-481q0 -102 -70.5 -160t-180.5 -58z" />
    <glyph glyph-name="dotlessi" unicode="&#x131;" horiz-adv-x="296" 
d="M53 0v539h190v-539h-190z" />
    <glyph glyph-name="circumflex" unicode="&#x302;" horiz-adv-x="274" 
d="M244 580l-107 74l-107 -74l-51 46l108 109q20 20 50 20t50 -20l108 -109z" />
    <glyph glyph-name="tilde" unicode="&#x303;" horiz-adv-x="274" 
d="M226 596q-29 0 -81 21.5t-74 19.5q-25 0 -41 -14t-26 -39l-35 83q12 26 32.5 41.5t52.5 18.5q26 0 76 -21t71 -19q25 0 41.5 13t27.5 36l35 -84q-20 -56 -79 -56z" />
    <glyph glyph-name="macron" unicode="&#x2c9;" horiz-adv-x="274" 
d="M-36 622v96h346v-96h-346z" />
    <glyph glyph-name="breve" unicode="&#x2d8;" horiz-adv-x="274" 
d="M138 589q-81 0 -116.5 47t-35.5 106l62 16q11 -41 33.5 -58t55.5 -17q32 0 53 16.5t37 58.5l61 -16q0 -57 -35.5 -105t-114.5 -48z" />
    <glyph glyph-name="dotaccent" unicode="&#x2d9;" horiz-adv-x="274" 
d="M137 607q-35 0 -60.5 24.5t-25.5 60.5t25 61t61 25t61 -25t25 -61q0 -35 -25 -60t-61 -25z" />
    <glyph glyph-name="ring" unicode="&#x2da;" horiz-adv-x="274" 
d="M137 585q-38 0 -65 27t-27 65t27 65t65 27t65 -27t27 -65t-27 -65t-65 -27zM137 716q-16 0 -27.5 -11.5t-11.5 -27.5t11 -27t28 -11q16 0 27 11t11 27q0 17 -11 28t-27 11z" />
    <glyph glyph-name="cedilla" unicode="&#xb8;" horiz-adv-x="274" 
d="M-9 -209l31 55q27 -3 49 -3q96 0 96 32q0 17 -26 19t-90 2l29 50q117 0 160 -14.5t43 -54.5q0 -45 -52.5 -68t-149.5 -23q-37 0 -90 5z" />
    <glyph glyph-name="hungarumlaut" unicode="&#x2ba;" horiz-adv-x="274" 
d="M200 593h-62l63 128q12 12 30.5 19.5t40.5 7.5q23 0 32.5 -6.5t11.5 -19.5zM48 593h-62l62 128q12 12 30.5 19.5t40.5 7.5q23 0 32.5 -6.5t11.5 -19.5z" />
    <glyph glyph-name="ogonek" unicode="&#x2db;" horiz-adv-x="274" 
d="M80 -128q0 41 28.5 73.5t86.5 60.5h98q-61 -34 -79.5 -59t-18.5 -48q0 -24 34 -24q13 0 27 3t35 12l20 -51q-64 -36 -134 -36q-44 0 -70.5 17t-26.5 52z" />
    <glyph glyph-name="caron" unicode="&#x2c7;" horiz-adv-x="274" 
d="M189 603q-19 -20 -52 -20t-52 20l-108 109l50 46l110 -77l110 77l50 -46z" />
    <glyph glyph-name="Lslash" horiz-adv-x="456" 
d="M73 0v337l-48 -23v109l48 22v243h197v-176l71 30v-108l-71 -30v-272h158v-132h-355z" />
    <glyph glyph-name="lslash" horiz-adv-x="351" 
d="M271 403v-403h-190v340l-55 -27v110l55 26v336h190v-272l67 32v-110z" />
    <glyph glyph-name="Scaron" horiz-adv-x="493" 
d="M303 750q-20 -20 -52 -20q-31 0 -51 20l-109 109l50 46l111 -77l110 77l50 -46zM215 -10q-65 0 -112.5 11t-77.5 31l44 138q18 -13 46 -22.5t60 -9.5q34 0 53.5 15.5t19.5 43.5q0 26 -18 45t-77 47t-90 79t-31 108q0 94 63 158t167 64q57 0 99.5 -11t71.5 -30l-40 -120
q-22 13 -47 21t-53 8q-68 0 -68 -59q0 -47 86.5 -88.5t116.5 -91t30 -115.5q0 -95 -68.5 -158.5t-174.5 -63.5z" />
    <glyph glyph-name="scaron" horiz-adv-x="438" 
d="M273 603q-20 -20 -52 -20q-31 0 -51 20l-109 109l50 46l111 -77l110 77l50 -46zM190 -9q-52 0 -96 11t-73 29l48 120q17 -14 41 -22.5t51 -8.5q22 0 36 11t14 31t-13 34t-63 34.5t-75.5 58t-25.5 85.5q0 75 53 125t137 50q56 0 92.5 -9t76.5 -32l-45 -106q-14 11 -35 19
t-44 8q-48 0 -48 -42q0 -37 65.5 -65.5t92.5 -66.5t27 -88q0 -77 -58 -126.5t-158 -49.5z" />
    <glyph glyph-name="Zcaron" horiz-adv-x="491" 
d="M299 750q-20 -20 -51 -20q-33 0 -52 20l-108 109l49 46l111 -77l110 77l50 -46zM14 0l196 556h-170v132h413l-185 -556h188v-132h-442z" />
    <glyph glyph-name="zcaron" horiz-adv-x="450" 
d="M278 603q-20 -20 -51 -20q-33 0 -52 20l-108 109l49 46l111 -77l110 77l50 -46zM23 0l161 415h-142v124h375l-150 -415h152v-124h-396z" />
    <glyph glyph-name="brokenbar" horiz-adv-x="260" 
d="M57 383v402h146v-402h-146zM57 -215v401h146v-401h-146z" />
    <glyph glyph-name="Eth" horiz-adv-x="650" 
d="M294 -10q-73 0 -126.5 10t-93.5 31v275h-45v117h45v234q42 18 96 29.5t115 11.5q171 0 248.5 -96.5t77.5 -256.5q0 -158 -75 -256.5t-242 -98.5zM294 571q-11 0 -29 -4v-144h62v-117h-62v-179q9 -2 15 -3t17 -1q63 0 90.5 49.5t27.5 176.5q0 120 -28 171t-93 51z" />
    <glyph glyph-name="glyph233" horiz-adv-x="583" 
d="M291 -11q-118 0 -187 77t-69 203q0 120 64 199t167 79q22 0 37 -4q-10 26 -19 44t-24 40l-91 -30q-7 14 -21 34.5t-28 35.5l86 27q-12 15 -18 21.5t-31 30.5l162 51q10 -8 25.5 -23.5t22.5 -25.5l82 27q12 -14 26 -32t26 -36l-82 -28q56 -87 90 -189t34 -214
q0 -131 -67 -209t-185 -78zM332 432q-13 4 -32 4q-39 0 -58 -35.5t-19 -125.5q0 -82 15 -118.5t53 -36.5q35 0 49.5 38.5t14.5 119.5q0 38 -6.5 83t-16.5 71z" />
    <glyph glyph-name="Yacute" horiz-adv-x="546" 
d="M316 739h-103l67 147q18 11 45 17t55 6q29 0 47.5 -6.5t24.5 -21.5zM370 281v-281h-197v281l-179 407h209l80 -234l87 234h183z" />
    <glyph glyph-name="yacute" horiz-adv-x="539" 
d="M312 593h-103l68 147q17 10 43.5 16.5t53.5 6.5t47.5 -7.5t26.5 -21.5zM293 -215h-201l91 215l-177 539h201l70 -338l78 338h178z" />
    <glyph glyph-name="Thorn" horiz-adv-x="598" 
d="M271 134l-19 1v-135h-193v688h193v-107l44 4q142 0 206 -60t64 -165q0 -104 -71.5 -165t-223.5 -61zM283 474l-31 -3v-220h13q61 0 87 27t26 82q0 114 -95 114z" />
    <glyph glyph-name="thorn" horiz-adv-x="593" 
d="M312 -5q-22 0 -38.5 1.5t-30.5 5.5v-217h-190v1000h190v-255q17 7 41 12t48 5q96 0 161 -67t65 -193q0 -134 -70.5 -213t-175.5 -79zM278 436q-21 0 -35 -7v-319q16 -4 29 -4q51 0 74.5 43t23.5 123q0 89 -21.5 126.5t-70.5 37.5z" />
    <glyph glyph-name="minus" 
d="M83 270v120h416v-120h-416z" />
    <glyph glyph-name="multiply" 
d="M424 112l-133 137l-133 -136l-80 80l133 137l-133 138l80 80l133 -137l132 137l81 -80l-133 -138l133 -138z" />
    <glyph glyph-name="onesuperior" horiz-adv-x="392" 
d="M165 256v304q-24 -6 -43.5 -9t-49.5 -3l-16 77q59 6 95.5 24t49.5 39h94v-432h-130z" />
    <glyph glyph-name="twosuperior" horiz-adv-x="392" 
d="M27 257l147 213q21 31 27.5 46t6.5 34q0 20 -15 34t-46 14q-21 0 -36 -3.5t-35 -11.5l-31 84q23 11 59.5 19t73.5 8q89 0 125.5 -37.5t36.5 -89.5q0 -28 -13.5 -56t-45.5 -68l-65 -80h131v-106h-320z" />
    <glyph glyph-name="threesuperior" horiz-adv-x="392" 
d="M172 251q-45 0 -77.5 6.5t-61.5 21.5l34 89q18 -9 37 -13.5t47 -4.5q31 0 45.5 11.5t14.5 31.5q0 27 -24 39.5t-70 12.5v70q47 5 67.5 18.5t20.5 33.5q0 37 -55 37q-26 0 -40 -3.5t-32 -12.5l-31 80q27 14 57.5 21t74.5 7q72 0 112.5 -30.5t40.5 -82.5q0 -27 -15.5 -48
t-39.5 -34q35 -16 53.5 -41t18.5 -66q0 -65 -49 -104t-128 -39z" />
    <glyph glyph-name="onehalf" horiz-adv-x="875" 
d="M506 0l147 212q19 28 26.5 46t7.5 35q0 23 -14 36t-47 13q-17 0 -29 -3t-31 -12l-31 84q25 11 55 19t67 8q89 0 125.5 -38t36.5 -90q0 -28 -13.5 -57t-45.5 -68l-65 -79h131v-106h-320zM317 -32l-98 40l300 713l99 -40zM138 256v304q-23 -5 -43.5 -8.5t-51.5 -3.5l-16 77
q59 6 96.5 24t50.5 39h94v-432h-130z" />
    <glyph glyph-name="onequarter" horiz-adv-x="875" 
d="M795 77v-77h-123v77h-164v75l162 280h125v-284h31v-71h-31zM333 -32l-98 40l300 713l99 -40zM138 256v304q-23 -5 -43.5 -8.5t-51.5 -3.5l-16 77q59 6 96.5 24t50.5 39h94v-432h-130zM636 246l-56 -98h91v96l2 70q-7 -14 -17.5 -33z" />
    <glyph glyph-name="threequarters" horiz-adv-x="875" 
d="M800 77v-77h-123v77h-164v75l162 280h125v-284h31v-71h-31zM363 -32l-99 40l301 713l98 -40zM171 251q-44 0 -77 7t-62 21l34 89q18 -9 37 -13.5t48 -4.5q30 0 44.5 12t14.5 31q0 27 -24 39.5t-69 12.5v70q46 5 66.5 18.5t20.5 33.5q0 37 -55 37q-26 0 -40 -3.5
t-32 -12.5l-31 80q27 13 58 20.5t74 7.5q73 0 113 -30t40 -83q0 -27 -15.5 -48t-39.5 -34q35 -15 53.5 -40.5t18.5 -66.5q0 -65 -49 -104t-128 -39zM641 246l-57 -98h92v96l2 70l-15.5 -29.5t-21.5 -38.5z" />
  </font>
</defs>
</svg>
